<svg width="33" height="33" viewBox="0 0 33 33" fill="none" xmlns="http://www.w3.org/2000/svg">
<g id="always-hours-service-svgrepo-com 1" clip-path="url(#clip0_63_3201)">
<g id="Group">
<path id="Vector" d="M23.625 11.2676H20.2895L23.068 8.09158C23.427 7.68158 23.625 7.15508 23.625 6.61008V6.51758C23.625 5.27708 22.6155 4.26758 21.375 4.26758C20.1345 4.26758 19.125 5.27708 19.125 6.51758V7.26758H20.125V6.51758C20.125 5.82808 20.6855 5.26758 21.375 5.26758C22.0645 5.26758 22.625 5.82808 22.625 6.51758V6.61008C22.625 6.91308 22.515 7.20508 22.3155 7.43308L19.125 11.0796V12.2676H23.625V11.2676Z" fill="black"/>
<path id="Vector_2" d="M27.625 12.2676H28.625V10.7676H29.625V9.76758H28.625V4.26758H27.316L24.625 9.64958V10.7676H27.625V12.2676ZM25.684 9.76758L27.625 5.88558V9.76758H25.684Z" fill="black"/>
<path id="Vector_3" d="M25.8275 16.5811C29.423 15.7981 32.125 12.5941 32.125 8.76758C32.125 4.35658 28.536 0.767578 24.125 0.767578C20.2985 0.767578 17.0945 3.46958 16.3115 7.06508C15.429 6.87108 14.5285 6.76758 13.625 6.76758C6.7325 6.76758 1.125 12.3751 1.125 19.2676C1.125 26.1601 6.7325 31.7676 13.625 31.7676C20.5175 31.7676 26.125 26.1601 26.125 19.2676C26.125 18.3641 26.0215 17.4636 25.8275 16.5811ZM24.125 1.76758C27.985 1.76758 31.125 4.90758 31.125 8.76758C31.125 12.6276 27.985 15.7676 24.125 15.7676C20.265 15.7676 17.125 12.6276 17.125 8.76758C17.125 4.90758 20.265 1.76758 24.125 1.76758ZM23.1055 18.7676H22.125V19.7676H23.0995C22.982 22.0096 22.0875 24.0441 20.676 25.6116L19.9885 24.9241L19.2815 25.6311L19.969 26.3186C18.4015 27.7306 16.367 28.6246 14.125 28.7421V27.7676H13.125V28.7421C10.883 28.6246 8.8485 27.7301 7.281 26.3186L7.9685 25.6311L7.2615 24.9241L6.574 25.6116C5.162 24.0441 4.268 22.0096 4.1505 19.7676H5.125V18.7676H4.1505C4.268 16.5256 5.1625 14.4911 6.574 12.9236L7.2615 13.6111L7.9685 12.9041L7.281 12.2166C8.8485 10.8046 10.883 9.91058 13.125 9.79308V10.7676H14.125V9.78708C14.844 9.82508 15.556 9.94608 16.2525 10.1471C16.8305 13.4526 19.4395 16.0616 22.7455 16.6401C22.946 17.3366 23.067 18.0486 23.1055 18.7676ZM13.625 30.7676C7.2835 30.7676 2.125 25.6091 2.125 19.2676C2.125 12.9261 7.2835 7.76758 13.625 7.76758C14.478 7.76758 15.3285 7.86808 16.161 8.05608C16.14 8.29108 16.125 8.52758 16.125 8.76758C16.125 8.87208 16.1365 8.97408 16.1405 9.07808C15.3155 8.87358 14.4725 8.76758 13.625 8.76758C7.8355 8.76758 3.125 13.4781 3.125 19.2676C3.125 25.0571 7.8355 29.7676 13.625 29.7676C19.4145 29.7676 24.125 25.0571 24.125 19.2676C24.125 18.4201 24.019 17.5771 23.8145 16.7521C23.9185 16.7561 24.0205 16.7676 24.125 16.7676C24.365 16.7676 24.6015 16.7526 24.8365 16.7316C25.0245 17.5641 25.125 18.4146 25.125 19.2676C25.125 25.6091 19.9665 30.7676 13.625 30.7676Z" fill="black"/>
<path id="Vector_4" d="M15.125 19.2676C15.125 18.6166 14.7055 18.0666 14.125 17.8596V11.7676H13.125V17.8596C12.5445 18.0666 12.125 18.6166 12.125 19.2676C12.125 20.0946 12.798 20.7676 13.625 20.7676C13.856 20.7676 14.072 20.7111 14.2675 20.6171L17.7715 24.1211L18.4785 23.4141L14.9745 19.9101C15.0685 19.7146 15.125 19.4986 15.125 19.2676ZM13.125 19.2676C13.125 18.9916 13.349 18.7676 13.625 18.7676C13.901 18.7676 14.125 18.9916 14.125 19.2676C14.125 19.5436 13.901 19.7676 13.625 19.7676C13.349 19.7676 13.125 19.5436 13.125 19.2676Z" fill="black"/>
<path id="Vector_5" d="M28.6216 17.7676C27.7946 17.7676 27.1216 18.4406 27.1216 19.2676C27.1216 19.8931 27.5071 20.4296 28.0526 20.6541C27.7391 23.9461 26.3031 27.0446 23.9766 29.4176L24.6906 30.1176C27.1901 27.5686 28.7276 24.2361 29.0531 20.6966C29.6691 20.5101 30.1216 19.9441 30.1216 19.2676C30.1216 18.4406 29.4486 17.7676 28.6216 17.7676ZM28.6216 19.7676C28.3456 19.7676 28.1216 19.5436 28.1216 19.2676C28.1216 18.9916 28.3456 18.7676 28.6216 18.7676C28.8976 18.7676 29.1216 18.9916 29.1216 19.2676C29.1216 19.5436 28.8976 19.7676 28.6216 19.7676Z" fill="black"/>
<path id="Vector_6" d="M3.76544 8.63408C6.09444 6.47358 9.09094 5.14508 12.2399 4.84458C12.4669 5.38608 13.0014 5.76758 13.6239 5.76758C14.4509 5.76758 15.1239 5.09458 15.1239 4.26758C15.1239 3.44058 14.4509 2.76758 13.6239 2.76758C12.9479 2.76758 12.3814 3.22008 12.1949 3.83608C8.80944 4.14808 5.58794 5.58058 3.08594 7.90108L3.76544 8.63408ZM13.6239 3.76758C13.8999 3.76758 14.1239 3.99158 14.1239 4.26758C14.1239 4.54358 13.8999 4.76758 13.6239 4.76758C13.3479 4.76758 13.1239 4.54358 13.1239 4.26758C13.1239 3.99158 13.3479 3.76758 13.6239 3.76758Z" fill="black"/>
</g>
</g>
<defs>
<clipPath id="clip0_63_3201">
<rect width="32" height="32" fill="white" transform="translate(0.625 0.267578)"/>
</clipPath>
</defs>
</svg>
