<svg width="58" height="58" viewBox="0 0 58 58" fill="none" xmlns="http://www.w3.org/2000/svg">
<g id="Group 42">
<g id="Group">
<path id="Vector" d="M48.8757 21.6106V12.0068H36.0707H34.7902H23.2657H21.9852H9.18022V20.3282H9.17773V29.932H9.18022V36.9747H9.17773V45.2979H15.5828V45.2998H28.3878H29.6683H42.4733V45.2979H48.8732V38.2571H48.8757V28.6533H48.8732V21.6106H48.8757ZM23.2657 13.2873H34.7902V20.3301H23.2657V13.2873ZM41.1928 21.6106V28.6533H29.6683V21.6106H41.1928ZM28.3877 21.6106V28.6533H16.8632V21.6106H28.3877ZM10.4607 13.2873H21.9852V20.3301H10.4607V13.2873ZM10.4582 21.6087H15.5802V28.6515H10.4582V21.6087ZM15.5803 44.0175H10.4583V38.2552H15.5803V44.0175ZM10.4607 36.9766V29.9338H21.9852V36.9766H10.4607ZM28.3877 44.0193H16.8632V38.2571H28.3878V44.0193H28.3877ZM23.2657 36.9766V29.9338H34.7902V36.9766H23.2657ZM41.1928 44.0193H29.6683V38.2571H41.1928V44.0193ZM47.5928 44.0175H42.4708V38.2552H47.5928V44.0175ZM47.5952 36.9766H36.0707V29.9338H47.5952V36.9766ZM42.4707 28.6515V21.6087H47.5927V28.6515H42.4707ZM47.5952 20.3301H36.0707V13.2873H47.5952V20.3301Z" fill="white"/>
</g>
<g id="Group 40">
<rect id="Rectangle 68" x="0.945312" y="0.572266" width="56.1634" height="56.1634" stroke="white"/>
</g>
</g>
</svg>
