<svg width="13" height="14" viewBox="0 0 13 14" fill="none" xmlns="http://www.w3.org/2000/svg">
<path d="M6.37085 10.8089C5.37867 10.8089 4.43871 10.4173 3.73374 9.71232C2.27157 8.25016 2.27157 5.90026 3.73374 4.4642C4.43871 3.75923 5.37867 3.36758 6.37085 3.36758C7.36303 3.36758 8.30299 3.75923 9.00796 4.4642C9.21684 4.67308 9.21684 5.01252 9.00796 5.24751C8.79908 5.45639 8.45965 5.45639 8.22466 5.24751C7.72857 4.75141 7.07582 4.49031 6.37085 4.49031C5.66588 4.49031 5.01313 4.75141 4.51704 5.24751C3.49875 6.2658 3.49875 7.93684 4.51704 8.95513C5.01313 9.45122 5.66588 9.71232 6.37085 9.71232C7.07582 9.71232 7.72857 9.45122 8.22466 8.95513C8.43354 8.74625 8.77297 8.74625 9.00796 8.95513C9.21684 9.16401 9.21684 9.50344 9.00796 9.73843C8.27688 10.4434 7.36303 10.8089 6.37085 10.8089ZM6.37085 13.4722C2.84599 13.4722 0 10.6001 0 7.10132C0 3.60257 2.84599 0.730469 6.37085 0.730469C9.86959 0.730469 12.7417 3.57646 12.7417 7.10132C12.7417 10.6262 9.86959 13.4722 6.37085 13.4722ZM6.37085 1.82709C3.47264 1.82709 1.09662 4.17699 1.09662 7.10132C1.09662 10.0256 3.44653 12.3755 6.37085 12.3755C9.26906 12.3755 11.6451 10.0256 11.6451 7.10132C11.6451 4.17699 9.29517 1.82709 6.37085 1.82709Z" fill="black"/>
</svg>
