<svg width="32" height="33" viewBox="0 0 32 33" fill="none" xmlns="http://www.w3.org/2000/svg">
<g id="deal-svgrepo-com 1" clip-path="url(#clip0_63_3181)">
<g id="Group">
<g id="Group_2">
<g id="Group_3">
<path id="Vector" d="M20.4377 25.8123C20.0453 25.9887 19.638 26.1419 19.2272 26.2679C18.8767 26.3754 18.6797 26.7466 18.7871 27.0972C18.8747 27.3829 19.1375 27.5665 19.4216 27.5665C19.4861 27.5665 19.5516 27.5571 19.6165 27.5372C20.0798 27.3952 20.5391 27.2223 20.9819 27.0234C21.3163 26.873 21.4656 26.4802 21.3153 26.1458C21.165 25.8114 20.772 25.6622 20.4377 25.8123Z" fill="black"/>
<path id="Vector_2" d="M13.843 6.05798C13.8889 6.05798 13.9355 6.05323 13.9822 6.04323C14.402 5.9536 14.8324 5.88954 15.2614 5.8526C15.6267 5.82117 15.8973 5.4996 15.8659 5.13429C15.8344 4.76904 15.5132 4.4986 15.1476 4.52979C14.6639 4.57142 14.1785 4.64379 13.7051 4.74479C13.3465 4.82129 13.118 5.17398 13.1944 5.53254C13.261 5.84442 13.5364 6.05798 13.843 6.05798Z" fill="black"/>
<path id="Vector_3" d="M18.3316 6.03812C18.7526 6.12694 19.1721 6.24325 19.5786 6.38381C19.6505 6.40869 19.7237 6.42044 19.7957 6.42044C20.0707 6.42044 20.3281 6.248 20.423 5.97344C20.5428 5.62694 20.3591 5.24894 20.0126 5.12912C19.5539 4.97044 19.0806 4.83931 18.6057 4.73906C18.2467 4.66331 17.8948 4.89287 17.8191 5.25156C17.7434 5.61019 17.9729 5.96237 18.3316 6.03812Z" fill="black"/>
<path id="Vector_4" d="M9.62546 7.94564C9.76115 7.94564 9.89815 7.90414 10.0162 7.81808C10.3638 7.56439 10.7307 7.32989 11.1063 7.12127C11.4268 6.9432 11.5423 6.53908 11.3642 6.21858C11.1861 5.89808 10.7821 5.78252 10.4615 5.96064C10.0383 6.1957 9.62515 6.45983 9.23352 6.74552C8.9374 6.96158 8.87246 7.37689 9.08852 7.67308C9.21858 7.8512 9.42058 7.94564 9.62546 7.94564Z" fill="black"/>
<path id="Vector_5" d="M16.1945 26.7231C16.1935 26.7231 16.1926 26.7231 16.1917 26.7231H16.17C15.7385 26.7231 15.3038 26.6964 14.8782 26.6438C14.5142 26.5986 14.1828 26.8573 14.1379 27.2211C14.0929 27.5849 14.3514 27.9164 14.7152 27.9614C15.1948 28.0206 15.6842 28.0507 16.17 28.0507H16.197C16.5635 28.0493 16.8596 27.7509 16.8582 27.3842C16.8567 27.0186 16.5598 26.7231 16.1945 26.7231Z" fill="black"/>
<path id="Vector_6" d="M11.9199 25.8213C11.5274 25.646 11.1416 25.444 10.7733 25.221C10.4596 25.0312 10.0515 25.1315 9.86163 25.4452C9.67181 25.7589 9.77219 26.167 10.0858 26.3568C10.5011 26.6081 10.936 26.8358 11.3784 27.0334C11.4664 27.0727 11.5583 27.0913 11.6488 27.0913C11.9028 27.0913 12.1451 26.9448 12.2553 26.698C12.4048 26.3634 12.2546 25.9708 11.9199 25.8213Z" fill="black"/>
<path id="Vector_7" d="M26.9512 19.0539C26.6024 18.941 26.2281 19.1323 26.1152 19.4811C25.9829 19.8901 25.8233 20.2952 25.6408 20.6851C25.4855 21.0172 25.6287 21.4123 25.9607 21.5677C26.0517 21.6103 26.1474 21.6305 26.2416 21.6305C26.4913 21.6305 26.7305 21.489 26.8433 21.2478C27.0491 20.8082 27.2291 20.3513 27.3784 19.89C27.4913 19.5411 27.3 19.1668 26.9512 19.0539Z" fill="black"/>
<path id="Vector_8" d="M7.59828 22.25C7.38797 21.9496 6.97409 21.8766 6.67378 22.0868C6.37347 22.2971 6.30047 22.711 6.51065 23.0113C6.7884 23.408 7.09378 23.7916 7.41834 24.1516C7.54947 24.297 7.73009 24.3708 7.91153 24.3708C8.06997 24.3708 8.22897 24.3144 8.3559 24.2C8.62822 23.9545 8.64984 23.5348 8.40428 23.2625C8.11615 22.9429 7.8449 22.6021 7.59828 22.25Z" fill="black"/>
<path id="Vector_9" d="M24.8846 23.1952C24.6119 22.9504 24.1921 22.9729 23.9472 23.2457C23.6597 23.5659 23.3494 23.8716 23.0248 24.1542C22.7483 24.3949 22.7193 24.8143 22.9601 25.0907C23.0913 25.2415 23.2756 25.3186 23.461 25.3186C23.6156 25.3186 23.7709 25.2649 23.8966 25.1554C24.2621 24.8372 24.6115 24.4931 24.9351 24.1327C25.18 23.8598 25.1573 23.4402 24.8846 23.1952Z" fill="black"/>
<path id="Vector_10" d="M31.911 14.6708L26.47 5.24664C26.3789 5.0887 26.2267 4.97527 26.0493 4.93283C25.872 4.89052 25.685 4.92295 25.5322 5.02264L25.3614 5.13414C22.7796 2.9947 19.5635 1.83008 16.1681 1.83008C12.3115 1.83008 8.68571 3.33189 5.95871 6.05889C5.32839 6.6892 4.76521 7.36845 4.26939 8.08677L3.65083 7.92227C3.29702 7.82814 2.93377 8.03839 2.83902 8.39202L0.0226439 18.9033C-0.0230436 19.0736 0.00101894 19.255 0.0892689 19.4076C0.177581 19.5602 0.322894 19.6715 0.493206 19.7167L2.26533 20.1879C2.92546 22.5428 4.18208 24.701 5.95871 26.4777C8.68577 29.2047 12.3115 30.7065 16.1681 30.7065C20.0246 30.7065 23.6504 29.2047 26.3775 26.4777C29.1036 23.7515 30.6053 20.1271 30.6062 16.272L31.699 15.5586C31.9942 15.3659 32.0873 14.976 31.911 14.6708ZM16.1681 3.15783C19.1852 3.15783 21.9669 4.18295 24.1849 5.90227L21.9969 7.3307C21.7018 7.52339 21.6086 7.9132 21.785 8.21852L21.9701 8.5392L20.8306 9.19714C20.4246 9.43152 19.9714 9.51139 19.4071 9.44745L14.2794 8.08527C13.4203 7.85495 12.53 8.34539 12.2086 9.22583C12.1976 9.25639 12.1886 9.2877 12.1821 9.31958C12.0985 9.72527 12.1122 10.1287 12.2065 10.5044L12.1441 10.4876C11.4927 10.3131 10.7974 10.2822 10.1333 10.3981C9.65808 10.4813 9.16058 10.459 8.69452 10.3341L7.42352 9.99352L7.51852 9.63889C7.56421 9.46864 7.54014 9.2872 7.45189 9.13458C7.36358 8.98202 7.21827 8.87077 7.04796 8.82552L5.64977 8.4537C8.04133 5.24245 11.8653 3.15783 16.1681 3.15783ZM24.505 14.3943C24.2431 13.9408 23.8215 13.6165 23.3178 13.4816L14.3327 11.0651C13.7351 10.905 13.3652 10.2853 13.4725 9.6397C13.5525 9.46252 13.7231 9.31077 13.937 9.36795C13.937 9.36795 19.1697 10.756 19.1993 10.7596C20.0734 10.8689 20.824 10.7338 21.4941 10.3468L22.6336 9.68889L26.3828 16.1827L24.8514 16.9205C24.7213 16.7672 24.5675 16.6327 24.3929 16.5243C24.5313 16.3355 24.6376 16.1184 24.7018 15.8788C24.8369 15.3751 24.7669 14.848 24.505 14.3943ZM15.8587 18.2137L21.7848 19.8016C22.0302 19.9377 22.1618 20.2293 22.0855 20.5143C21.997 20.8445 21.6563 21.0411 21.326 20.9527L14.8161 19.2281C14.462 19.1332 14.098 19.3434 14.003 19.6975C13.9081 20.0516 14.1183 20.4156 14.4724 20.5106L20.0665 22.0095C20.3119 22.1456 20.4436 22.4372 20.3673 22.7222C20.3244 22.8822 20.2218 23.0159 20.0783 23.0987C19.935 23.1815 19.768 23.2035 19.6078 23.1606L9.41546 20.4296C8.97608 20.3118 8.57202 20.1095 8.21452 19.8281L8.13502 19.7656C7.63552 19.3725 7.07083 19.0897 6.45683 18.9253L5.12564 18.5686L7.07971 11.276L8.35064 11.6166C9.00189 11.791 9.69727 11.822 10.3615 11.7061C10.8368 11.6231 11.3343 11.6452 11.8002 11.7701L22.9743 14.7642C23.3096 14.8541 23.5094 15.2 23.4182 15.5399C23.3289 15.8727 22.9946 16.0626 22.6569 15.9729L22.6555 15.9725C22.6035 15.9586 17.3672 14.5753 17.3672 14.5753C17.0129 14.4803 16.6491 14.6906 16.5542 15.0446C16.4593 15.3988 16.6695 15.7628 17.0236 15.8577L23.5242 17.5798C23.8596 17.6696 24.0594 18.0156 23.9695 18.3509C23.8811 18.6811 23.5401 18.8779 23.2101 18.7893L16.2023 16.9313C15.8478 16.8361 15.4841 17.0466 15.3893 17.4006C15.2944 17.7548 15.5046 18.1188 15.8587 18.2137ZM1.47714 18.6045L3.95002 9.37564L6.06371 9.93764L3.59089 19.1665L1.47714 18.6045ZM16.1681 29.3789C10.4538 29.3789 5.58177 25.704 3.79083 20.5935L3.89008 20.62C3.94721 20.6351 4.00458 20.6424 4.06108 20.6424C4.35421 20.6424 4.62239 20.4467 4.70189 20.1502L4.78208 19.851L6.11327 20.2076C6.55258 20.3253 6.95658 20.5276 7.31414 20.8091L7.39364 20.8716C7.89308 21.2646 8.45777 21.5474 9.07183 21.712L19.2643 24.443C19.432 24.488 19.6023 24.5103 19.7716 24.5103C20.1091 24.5103 20.4421 24.4218 20.7422 24.2485C21.1928 23.9884 21.5151 23.5683 21.6497 23.0658C21.7196 22.8049 21.7333 22.542 21.6981 22.2901C22.4728 22.2044 23.1543 21.655 23.3678 20.8579C23.4326 20.6161 23.4491 20.3726 23.4232 20.1376C24.2623 20.1145 25.024 19.5457 25.252 18.6945C25.299 18.5191 25.3192 18.343 25.3175 18.1698L27.0486 17.3356L27.2258 17.6426C27.4652 18.0749 28.0548 17.9376 28.1636 17.8666L29.247 17.1594C28.7872 23.9744 23.0977 29.3789 16.1681 29.3789ZM28.0251 16.3715L23.2489 8.09883L25.6708 6.5177L30.447 14.7903L28.0251 16.3715Z" fill="black"/>
</g>
</g>
</g>
</g>
<defs>
<clipPath id="clip0_63_3181">
<rect width="32" height="32" fill="white" transform="translate(0 0.267578)"/>
</clipPath>
</defs>
</svg>
