<svg width="58" height="58" viewBox="0 0 58 58" fill="none" xmlns="http://www.w3.org/2000/svg">
<g clip-path="url(#clip0_224_1417)">
<path d="M44.9992 12.1377H34.2979H23.5966H12.8953C12.5386 12.1377 12.3008 12.3755 12.3008 12.7322V23.4335V34.1348V44.836C12.3008 45.1927 12.5386 45.4305 12.8953 45.4305H23.5966H34.2978H44.9991C45.3558 45.4305 45.5936 45.1927 45.5936 44.836V34.1348V23.4335V12.7322C45.5937 12.3755 45.3559 12.1377 44.9992 12.1377ZM13.4898 24.028H23.0021V33.5403H13.4898V24.028ZM24.1911 24.028H33.7034V33.5403H24.1911V24.028ZM34.8924 24.028H44.4046V33.5403H34.8924V24.028ZM44.4047 22.839H34.8924V13.3267H44.4046V22.839H44.4047ZM33.7034 22.839H24.1911V13.3267H33.7034V22.839ZM13.4898 13.3267H23.0021V22.839H13.4898V13.3267ZM13.4898 34.7293H23.0021V44.2416H13.4898V34.7293ZM24.1911 34.7293H33.7034V44.2416H24.1911V34.7293ZM44.4047 44.2416H34.8924V34.7293H44.4046V44.2416H44.4047Z" fill="white"/>
<path d="M15.4514 14.0993L14.2623 15.2883C14.0245 15.5261 14.0245 15.8828 14.2623 16.1206C14.3813 16.2395 14.5596 16.299 14.6785 16.299C14.8569 16.299 14.9758 16.2395 15.0947 16.1206L16.2837 14.9315C16.5215 14.6937 16.5215 14.3371 16.2837 14.0993C16.0459 13.8614 15.6892 13.8614 15.4514 14.0993Z" fill="white"/>
<path d="M15.4514 17.0729L14.2623 18.2619C14.0245 18.4997 14.0245 18.8564 14.2623 19.0942C14.3813 19.2131 14.5001 19.2726 14.6785 19.2726C14.8569 19.2726 14.9758 19.2131 15.0947 19.0942L16.2837 17.9052C16.5215 17.6674 16.5215 17.3108 16.2837 17.0729C16.0459 16.8351 15.6892 16.8351 15.4514 17.0729Z" fill="white"/>
<path d="M18.424 14.0993L17.235 15.2883C16.9972 15.5261 16.9972 15.8828 17.235 16.1206C17.3539 16.2395 17.5322 16.299 17.6512 16.299C17.8295 16.299 17.9484 16.2395 18.0674 16.1206L19.2564 14.9315C19.4942 14.6937 19.4942 14.3371 19.2564 14.0993C19.0186 13.8614 18.6618 13.8614 18.424 14.0993Z" fill="white"/>
<path d="M25.3796 16.299C25.558 16.299 25.6769 16.2395 25.7958 16.1206L26.9848 14.9315C27.2227 14.6937 27.2227 14.3371 26.9848 14.0993C26.747 13.8614 26.3904 13.8614 26.1526 14.0993L24.9635 15.2883C24.7257 15.5261 24.7257 15.8828 24.9635 16.1206C25.0824 16.2395 25.2013 16.299 25.3796 16.299Z" fill="white"/>
<path d="M25.3796 19.2726C25.558 19.2726 25.6769 19.2132 25.7958 19.0942L26.9848 17.9052C27.2227 17.6674 27.2227 17.3107 26.9848 17.0729C26.747 16.8351 26.3904 16.8351 26.1526 17.0729L24.9635 18.2619C24.7257 18.4997 24.7257 18.8564 24.9635 19.0942C25.0824 19.2132 25.2013 19.2726 25.3796 19.2726Z" fill="white"/>
<path d="M28.3523 16.299C28.5307 16.299 28.6495 16.2395 28.7685 16.1206L29.9575 14.9315C30.1953 14.6937 30.1953 14.3371 29.9575 14.0993C29.7197 13.8614 29.363 13.8614 29.1252 14.0993L27.9362 15.2883C27.6984 15.5261 27.6984 15.8828 27.9362 16.1206C28.055 16.2395 28.174 16.299 28.3523 16.299Z" fill="white"/>
<path d="M36.0809 16.299C36.2592 16.299 36.3781 16.2395 36.497 16.1206L37.6861 14.9315C37.9239 14.6937 37.9239 14.3371 37.6861 14.0993C37.4483 13.8614 37.0916 13.8614 36.8538 14.0993L35.6647 15.2883C35.4269 15.5261 35.4269 15.8828 35.6647 16.1206C35.7836 16.2395 35.9026 16.299 36.0809 16.299Z" fill="white"/>
<path d="M36.0809 19.2726C36.2592 19.2726 36.3781 19.2132 36.497 19.0942L37.6861 17.9052C37.9239 17.6674 37.9239 17.3107 37.6861 17.0729C37.4483 16.8351 37.0916 16.8351 36.8538 17.0729L35.6647 18.2619C35.4269 18.4997 35.4269 18.8564 35.6647 19.0942C35.7836 19.2132 35.9026 19.2726 36.0809 19.2726Z" fill="white"/>
<path d="M39.0555 16.299C39.2338 16.299 39.3527 16.2395 39.4717 16.1206L40.6607 14.9315C40.8985 14.6937 40.8985 14.3371 40.6607 14.0993C40.4229 13.8614 40.0662 13.8614 39.8283 14.0993L38.6393 15.2883C38.4015 15.5261 38.4015 15.8828 38.6393 16.1206C38.7582 16.2395 38.8771 16.299 39.0555 16.299Z" fill="white"/>
<path d="M15.4514 24.8014L14.2623 25.9904C14.0245 26.2282 14.0245 26.5849 14.2623 26.8227C14.3813 26.9416 14.5001 27.0011 14.6785 27.0011C14.8569 27.0011 14.9758 26.9417 15.0947 26.8227L16.2837 25.6337C16.5215 25.3959 16.5215 25.0392 16.2837 24.8014C16.0459 24.5636 15.6892 24.5636 15.4514 24.8014Z" fill="white"/>
<path d="M15.4514 27.7741L14.2623 28.9631C14.0245 29.2009 14.0245 29.5576 14.2623 29.7954C14.3813 29.9143 14.5001 29.9738 14.6785 29.9738C14.8569 29.9738 14.9758 29.9143 15.0947 29.7954L16.2837 28.6064C16.5215 28.3685 16.5215 28.0119 16.2837 27.7741C16.0459 27.5363 15.6892 27.5363 15.4514 27.7741Z" fill="white"/>
<path d="M18.424 24.8014L17.235 25.9904C16.9972 26.2282 16.9972 26.5849 17.235 26.8227C17.3539 26.9416 17.4728 27.0011 17.6512 27.0011C17.8295 27.0011 17.9484 26.9417 18.0674 26.8227L19.2564 25.6337C19.4942 25.3959 19.4942 25.0392 19.2564 24.8014C19.0186 24.5636 18.6618 24.5636 18.424 24.8014Z" fill="white"/>
<path d="M26.1526 24.8014L24.9635 25.9904C24.7257 26.2282 24.7257 26.5849 24.9635 26.8227C25.0824 26.9416 25.2013 27.0011 25.3797 27.0011C25.5581 27.0011 25.6769 26.9417 25.7959 26.8227L26.9849 25.6337C27.2227 25.3959 27.2227 25.0392 26.9849 24.8014C26.7471 24.5636 26.3904 24.5636 26.1526 24.8014Z" fill="white"/>
<path d="M26.1526 27.7741L24.9635 28.9631C24.7257 29.2009 24.7257 29.5576 24.9635 29.7954C25.0824 29.9143 25.2013 29.9738 25.3797 29.9738C25.5581 29.9738 25.6769 29.9143 25.7959 29.7954L26.9849 28.6064C27.2227 28.3685 27.2227 28.0119 26.9849 27.7741C26.7471 27.5363 26.3904 27.5363 26.1526 27.7741Z" fill="white"/>
<path d="M29.1252 24.8004L27.9362 25.9895C27.6984 26.2273 27.6984 26.584 27.9362 26.8218C28.0551 26.9406 28.174 27.0001 28.3523 27.0001C28.5307 27.0001 28.6496 26.9407 28.7685 26.8218L29.9576 25.6327C30.1954 25.3949 30.1954 25.0382 29.9576 24.8004C29.7198 24.5626 29.3631 24.5626 29.1252 24.8004Z" fill="white"/>
<path d="M36.8537 24.8014L35.6647 25.9904C35.4269 26.2282 35.4269 26.5849 35.6647 26.8227C35.7836 26.9416 35.9025 27.0011 36.0809 27.0011C36.2592 27.0011 36.3781 26.9417 36.497 26.8227L37.6861 25.6337C37.9239 25.3959 37.9239 25.0392 37.6861 24.8014C37.4483 24.5636 37.0915 24.5636 36.8537 24.8014Z" fill="white"/>
<path d="M36.8537 27.7741L35.6647 28.9631C35.4269 29.2009 35.4269 29.5576 35.6647 29.7954C35.7836 29.9143 35.9025 29.9738 36.0809 29.9738C36.2592 29.9738 36.3781 29.9143 36.497 29.7954L37.6861 28.6064C37.9239 28.3685 37.9239 28.0119 37.6861 27.7741C37.4483 27.5363 37.0915 27.5363 36.8537 27.7741Z" fill="white"/>
<path d="M39.8283 24.8014L38.6393 25.9904C38.4015 26.2282 38.4015 26.5849 38.6393 26.8227C38.7582 26.9416 38.8771 27.0011 39.0555 27.0011C39.2338 27.0011 39.3527 26.9417 39.4717 26.8227L40.6607 25.6337C40.8985 25.3959 40.8985 25.0392 40.6607 24.8014C40.4228 24.5636 40.0661 24.5636 39.8283 24.8014Z" fill="white"/>
<path d="M15.4514 35.5026L14.2623 36.6916C14.0245 36.9294 14.0245 37.2861 14.2623 37.5239C14.3813 37.6428 14.5001 37.7023 14.6785 37.7023C14.8569 37.7023 14.9758 37.6428 15.0947 37.5239L16.2837 36.3349C16.5215 36.0971 16.5215 35.7404 16.2837 35.5026C16.0459 35.2648 15.6892 35.2648 15.4514 35.5026Z" fill="white"/>
<path d="M15.4514 38.4743L14.2623 39.6633C14.0245 39.9011 14.0245 40.2578 14.2623 40.4956C14.3813 40.6145 14.5001 40.674 14.6785 40.674C14.8569 40.674 14.9758 40.6145 15.0947 40.4956L16.2837 39.3066C16.5215 39.0687 16.5215 38.7121 16.2837 38.4742C16.0459 38.2365 15.6892 38.2365 15.4514 38.4743Z" fill="white"/>
<path d="M18.424 35.5026L17.235 36.6916C16.9972 36.9294 16.9972 37.2861 17.235 37.5239C17.3539 37.6428 17.4728 37.7023 17.6512 37.7023C17.8295 37.7023 17.9484 37.6428 18.0674 37.5239L19.2564 36.3349C19.4942 36.0971 19.4942 35.7404 19.2564 35.5026C19.0186 35.2648 18.6618 35.2648 18.424 35.5026Z" fill="white"/>
<path d="M26.1526 35.5026L24.9635 36.6916C24.7257 36.9294 24.7257 37.2861 24.9635 37.5239C25.0824 37.6428 25.2013 37.7023 25.3797 37.7023C25.5581 37.7023 25.6769 37.6428 25.7959 37.5239L26.9849 36.3349C27.2227 36.0971 27.2227 35.7404 26.9849 35.5026C26.7471 35.2648 26.3904 35.2648 26.1526 35.5026Z" fill="white"/>
<path d="M26.1526 38.4743L24.9635 39.6633C24.7257 39.9011 24.7257 40.2578 24.9635 40.4956C25.0824 40.6145 25.2013 40.674 25.3797 40.674C25.5581 40.674 25.6769 40.6145 25.7959 40.4956L26.9849 39.3066C27.2227 39.0687 27.2227 38.7121 26.9849 38.4742C26.7471 38.2365 26.3904 38.2365 26.1526 38.4743Z" fill="white"/>
<path d="M29.1252 35.5026L27.9362 36.6916C27.6984 36.9294 27.6984 37.2861 27.9362 37.5239C28.0551 37.6428 28.174 37.7023 28.3523 37.7023C28.5307 37.7023 28.6496 37.6428 28.7685 37.5239L29.9576 36.3349C30.1954 36.0971 30.1954 35.7404 29.9576 35.5026C29.7198 35.2648 29.3631 35.2648 29.1252 35.5026Z" fill="white"/>
<path d="M36.0808 37.7023C36.2592 37.7023 36.378 37.6428 36.497 37.5239L37.686 36.3349C37.9238 36.0971 37.9238 35.7404 37.686 35.5026C37.4482 35.2648 37.0915 35.2648 36.8537 35.5026L35.6647 36.6916C35.4269 36.9294 35.4269 37.2861 35.6647 37.5239C35.7836 37.6428 35.9025 37.7023 36.0808 37.7023Z" fill="white"/>
<path d="M36.0808 40.674C36.2592 40.674 36.378 40.6146 36.497 40.4957L37.686 39.3066C37.9238 39.0688 37.9238 38.7121 37.686 38.4743C37.4482 38.2364 37.0915 38.2364 36.8537 38.4743L35.6647 39.6633C35.4269 39.9011 35.4269 40.2578 35.6647 40.4956C35.7836 40.6146 35.9025 40.674 36.0808 40.674Z" fill="white"/>
<path d="M39.0555 37.7023C39.2338 37.7023 39.3527 37.6428 39.4717 37.5239L40.6607 36.3349C40.8985 36.0971 40.8985 35.7404 40.6607 35.5026C40.4229 35.2648 40.0662 35.2648 39.8283 35.5026L38.6393 36.6916C38.4015 36.9294 38.4015 37.2861 38.6393 37.5239C38.7582 37.6428 38.8771 37.7023 39.0555 37.7023Z" fill="white"/>
</g>
<rect x="0.867188" y="1.01758" width="56.1634" height="56.1634" stroke="white"/>
<defs>
<clipPath id="clip0_224_1417">
<rect width="33.293" height="33.293" fill="white" transform="translate(12.3008 12.1377)"/>
</clipPath>
</defs>
</svg>
