<svg width="34" height="34" viewBox="0 0 34 34" fill="none" xmlns="http://www.w3.org/2000/svg">
<g id="glass-wall-svgrepo-com 1" clip-path="url(#clip0_224_1418)">
<g id="Group">
<g id="Group_2">
<g id="Group_3">
<path id="Vector" d="M33.2297 0.00683594H22.5284H11.8271H1.12574C0.769058 0.00683594 0.53125 0.244644 0.53125 0.601323V11.3026V22.0039V32.7052C0.53125 33.0619 0.769058 33.2997 1.12574 33.2997H11.827H22.5283H33.2296C33.5863 33.2997 33.8241 33.0619 33.8241 32.7052V22.004V11.3027V0.601323C33.8242 0.244644 33.5864 0.00683594 33.2297 0.00683594ZM1.72029 11.8972H11.2325V21.4094H1.72029V11.8972ZM12.4216 11.8972H21.9338V21.4094H12.4216V11.8972ZM23.1229 11.8972H32.6351V21.4094H23.1229V11.8972ZM32.6352 10.7081H23.1229V1.19588H32.6351V10.7081H32.6352ZM21.9338 10.7081H12.4216V1.19588H21.9338V10.7081ZM1.72029 1.19588H11.2325V10.7081H1.72029V1.19588ZM1.72029 22.5985H11.2325V32.1107H1.72029V22.5985ZM12.4216 22.5985H21.9338V32.1107H12.4216V22.5985ZM32.6352 32.1108H23.1229V22.5985H32.6351V32.1108H32.6352Z" fill="white"/>
<path id="Vector_2" d="M3.68185 1.96839L2.49281 3.15743C2.255 3.39524 2.255 3.75192 2.49281 3.98973C2.61175 4.1086 2.79005 4.1681 2.90899 4.1681C3.08736 4.1681 3.20623 4.10867 3.32517 3.98973L4.51421 2.80069C4.75202 2.56288 4.75202 2.2062 4.51421 1.96839C4.27633 1.73059 3.91966 1.73059 3.68185 1.96839Z" fill="white"/>
<path id="Vector_3" d="M3.68185 4.94202L2.49281 6.13106C2.255 6.36887 2.255 6.72555 2.49281 6.96335C2.61175 7.08229 2.73062 7.14173 2.90899 7.14173C3.08736 7.14173 3.20623 7.08229 3.32517 6.96335L4.51414 5.77438C4.75195 5.53657 4.75195 5.17989 4.51414 4.94209C4.27633 4.70421 3.91966 4.70421 3.68185 4.94202Z" fill="white"/>
<path id="Vector_4" d="M6.6545 1.96839L5.46547 3.15743C5.22766 3.39524 5.22766 3.75192 5.46547 3.98973C5.5844 4.1086 5.76271 4.1681 5.88165 4.1681C6.06002 4.1681 6.17889 4.10867 6.29783 3.98973L7.48687 2.80069C7.72467 2.56288 7.72467 2.2062 7.48687 1.96839C7.24906 1.73059 6.89231 1.73059 6.6545 1.96839Z" fill="white"/>
<path id="Vector_5" d="M13.6101 4.1681C13.7885 4.1681 13.9073 4.10867 14.0263 3.98973L15.2153 2.80069C15.4531 2.56288 15.4531 2.2062 15.2153 1.96839C14.9775 1.73059 14.6208 1.73059 14.383 1.96839L13.194 3.15743C12.9562 3.39524 12.9562 3.75192 13.194 3.98973C13.3129 4.10867 13.4317 4.1681 13.6101 4.1681Z" fill="white"/>
<path id="Vector_6" d="M13.6101 7.14173C13.7885 7.14173 13.9073 7.0823 14.0263 6.96336L15.2153 5.77432C15.4531 5.53651 15.4531 5.17984 15.2153 4.94203C14.9775 4.70422 14.6208 4.70422 14.383 4.94203L13.194 6.13107C12.9562 6.36887 12.9562 6.72555 13.194 6.96336C13.3129 7.0823 13.4317 7.14173 13.6101 7.14173Z" fill="white"/>
<path id="Vector_7" d="M16.5828 4.1681C16.7611 4.1681 16.88 4.10867 16.9989 3.98973L18.188 2.80069C18.4258 2.56288 18.4258 2.2062 18.188 1.96839C17.9502 1.73059 17.5935 1.73059 17.3557 1.96839L16.1666 3.15743C15.9288 3.39524 15.9288 3.75192 16.1666 3.98973C16.2855 4.10867 16.4044 4.1681 16.5828 4.1681Z" fill="white"/>
<path id="Vector_8" d="M24.3113 4.1681C24.4897 4.1681 24.6086 4.10867 24.7275 3.98973L25.9166 2.80069C26.1544 2.56288 26.1544 2.2062 25.9166 1.96839C25.6787 1.73059 25.3221 1.73059 25.0843 1.96839L23.8952 3.15743C23.6573 3.39524 23.6573 3.75192 23.8952 3.98973C24.0141 4.10867 24.133 4.1681 24.3113 4.1681Z" fill="white"/>
<path id="Vector_9" d="M24.3113 7.14173C24.4897 7.14173 24.6086 7.0823 24.7275 6.96336L25.9166 5.77432C26.1544 5.53651 26.1544 5.17984 25.9166 4.94203C25.6787 4.70422 25.3221 4.70422 25.0843 4.94203L23.8952 6.13107C23.6573 6.36887 23.6573 6.72555 23.8952 6.96336C24.0141 7.0823 24.133 7.14173 24.3113 7.14173Z" fill="white"/>
<path id="Vector_10" d="M27.2859 4.1681C27.4643 4.1681 27.5832 4.10867 27.7021 3.98973L28.8912 2.80069C29.129 2.56288 29.129 2.2062 28.8912 1.96839C28.6534 1.73059 28.2967 1.73059 28.0588 1.96839L26.8698 3.15743C26.632 3.39524 26.632 3.75192 26.8698 3.98973C26.9886 4.10867 27.1076 4.1681 27.2859 4.1681Z" fill="white"/>
<path id="Vector_11" d="M3.68185 12.6705L2.49281 13.8596C2.255 14.0974 2.255 14.4541 2.49281 14.6919C2.61175 14.8107 2.73062 14.8702 2.90899 14.8702C3.08736 14.8702 3.20623 14.8108 3.32517 14.6919L4.51421 13.5028C4.75202 13.265 4.75202 12.9084 4.51421 12.6705C4.27633 12.4327 3.91966 12.4327 3.68185 12.6705Z" fill="white"/>
<path id="Vector_12" d="M3.68185 15.6432L2.49281 16.8322C2.255 17.07 2.255 17.4267 2.49281 17.6645C2.61175 17.7834 2.73062 17.8429 2.90899 17.8429C3.08736 17.8429 3.20623 17.7835 3.32517 17.6645L4.51421 16.4755C4.75202 16.2377 4.75202 15.881 4.51421 15.6432C4.27633 15.4054 3.91966 15.4054 3.68185 15.6432Z" fill="white"/>
<path id="Vector_13" d="M6.6545 12.6705L5.46547 13.8596C5.22766 14.0974 5.22766 14.4541 5.46547 14.6919C5.5844 14.8107 5.70327 14.8702 5.88165 14.8702C6.06002 14.8702 6.17889 14.8108 6.29783 14.6919L7.48687 13.5028C7.72467 13.265 7.72467 12.9084 7.48687 12.6705C7.24906 12.4327 6.89231 12.4327 6.6545 12.6705Z" fill="white"/>
<path id="Vector_14" d="M14.383 12.6705L13.194 13.8596C12.9562 14.0974 12.9562 14.4541 13.194 14.6919C13.3129 14.8107 13.4318 14.8702 13.6102 14.8702C13.7885 14.8702 13.9074 14.8108 14.0263 14.6919L15.2154 13.5028C15.4532 13.265 15.4532 12.9084 15.2154 12.6705C14.9776 12.4327 14.6208 12.4327 14.383 12.6705Z" fill="white"/>
<path id="Vector_15" d="M14.383 15.6432L13.194 16.8322C12.9562 17.07 12.9562 17.4267 13.194 17.6645C13.3129 17.7834 13.4318 17.8429 13.6102 17.8429C13.7885 17.8429 13.9074 17.7835 14.0263 17.6645L15.2154 16.4755C15.4532 16.2377 15.4532 15.881 15.2154 15.6432C14.9776 15.4054 14.6208 15.4054 14.383 15.6432Z" fill="white"/>
<path id="Vector_16" d="M17.3557 12.6696L16.1666 13.8586C15.9288 14.0964 15.9288 14.4531 16.1666 14.6909C16.2856 14.8098 16.4044 14.8693 16.5828 14.8693C16.7612 14.8693 16.8801 14.8098 16.999 14.6909L18.188 13.5019C18.4258 13.2641 18.4258 12.9074 18.188 12.6696C17.9502 12.4318 17.5936 12.4318 17.3557 12.6696Z" fill="white"/>
<path id="Vector_17" d="M25.0842 12.6705L23.8952 13.8596C23.6573 14.0974 23.6573 14.4541 23.8952 14.6919C24.0141 14.8107 24.133 14.8702 24.3113 14.8702C24.4897 14.8702 24.6086 14.8108 24.7275 14.6919L25.9166 13.5028C26.1544 13.265 26.1544 12.9084 25.9166 12.6705C25.6787 12.4327 25.322 12.4327 25.0842 12.6705Z" fill="white"/>
<path id="Vector_18" d="M25.0842 15.6432L23.8952 16.8322C23.6573 17.07 23.6573 17.4267 23.8952 17.6645C24.0141 17.7834 24.133 17.8429 24.3113 17.8429C24.4897 17.8429 24.6086 17.7835 24.7275 17.6645L25.9166 16.4755C26.1544 16.2377 26.1544 15.881 25.9166 15.6432C25.6787 15.4054 25.322 15.4054 25.0842 15.6432Z" fill="white"/>
<path id="Vector_19" d="M28.0588 12.6705L26.8698 13.8596C26.632 14.0974 26.632 14.4541 26.8698 14.6919C26.9887 14.8107 27.1076 14.8702 27.2859 14.8702C27.4643 14.8702 27.5832 14.8108 27.7021 14.6919L28.8912 13.5028C29.129 13.265 29.129 12.9084 28.8912 12.6705C28.6533 12.4327 28.2966 12.4327 28.0588 12.6705Z" fill="white"/>
<path id="Vector_20" d="M3.68185 23.3717L2.49281 24.5608C2.255 24.7986 2.255 25.1552 2.49281 25.393C2.61175 25.512 2.73062 25.5714 2.90899 25.5714C3.08736 25.5714 3.20623 25.512 3.32517 25.393L4.51421 24.204C4.75202 23.9662 4.75202 23.6095 4.51421 23.3717C4.27633 23.1339 3.91966 23.1339 3.68185 23.3717Z" fill="white"/>
<path id="Vector_21" d="M3.68185 26.3434L2.49281 27.5324C2.255 27.7703 2.255 28.1269 2.49281 28.3647C2.61175 28.4837 2.73062 28.5431 2.90899 28.5431C3.08736 28.5431 3.20623 28.4837 3.32517 28.3647L4.51421 27.1757C4.75202 26.9379 4.75202 26.5812 4.51421 26.3433C4.27633 26.1056 3.91966 26.1056 3.68185 26.3434Z" fill="white"/>
<path id="Vector_22" d="M6.6545 23.3717L5.46547 24.5608C5.22766 24.7986 5.22766 25.1552 5.46547 25.393C5.5844 25.512 5.70327 25.5714 5.88165 25.5714C6.06002 25.5714 6.17889 25.512 6.29783 25.393L7.48687 24.204C7.72467 23.9662 7.72467 23.6095 7.48687 23.3717C7.24906 23.1339 6.89231 23.1339 6.6545 23.3717Z" fill="white"/>
<path id="Vector_23" d="M14.383 23.3717L13.194 24.5608C12.9562 24.7986 12.9562 25.1552 13.194 25.393C13.3129 25.512 13.4318 25.5714 13.6102 25.5714C13.7885 25.5714 13.9074 25.512 14.0263 25.393L15.2154 24.204C15.4532 23.9662 15.4532 23.6095 15.2154 23.3717C14.9776 23.1339 14.6208 23.1339 14.383 23.3717Z" fill="white"/>
<path id="Vector_24" d="M14.383 26.3434L13.194 27.5324C12.9562 27.7703 12.9562 28.1269 13.194 28.3647C13.3129 28.4837 13.4318 28.5431 13.6102 28.5431C13.7885 28.5431 13.9074 28.4837 14.0263 28.3647L15.2154 27.1757C15.4532 26.9379 15.4532 26.5812 15.2154 26.3433C14.9776 26.1056 14.6208 26.1056 14.383 26.3434Z" fill="white"/>
<path id="Vector_25" d="M17.3557 23.3717L16.1666 24.5608C15.9288 24.7986 15.9288 25.1552 16.1666 25.393C16.2856 25.512 16.4044 25.5714 16.5828 25.5714C16.7612 25.5714 16.8801 25.512 16.999 25.393L18.188 24.204C18.4258 23.9662 18.4258 23.6095 18.188 23.3717C17.9502 23.1339 17.5936 23.1339 17.3557 23.3717Z" fill="white"/>
<path id="Vector_26" d="M24.3113 25.5714C24.4896 25.5714 24.6085 25.512 24.7274 25.393L25.9165 24.204C26.1543 23.9662 26.1543 23.6095 25.9165 23.3717C25.6787 23.1339 25.322 23.1339 25.0842 23.3717L23.8952 24.5608C23.6573 24.7986 23.6573 25.1552 23.8952 25.393C24.014 25.5119 24.133 25.5714 24.3113 25.5714Z" fill="white"/>
<path id="Vector_27" d="M24.3113 28.5432C24.4896 28.5432 24.6085 28.4837 24.7274 28.3648L25.9165 27.1758C26.1543 26.9379 26.1543 26.5813 25.9165 26.3434C25.6787 26.1056 25.322 26.1056 25.0842 26.3434L23.8952 27.5324C23.6573 27.7702 23.6573 28.1269 23.8952 28.3647C24.014 28.4837 24.133 28.5432 24.3113 28.5432Z" fill="white"/>
<path id="Vector_28" d="M27.2859 25.5714C27.4643 25.5714 27.5832 25.512 27.7021 25.393L28.8912 24.204C29.129 23.9662 29.129 23.6095 28.8912 23.3717C28.6534 23.1339 28.2967 23.1339 28.0588 23.3717L26.8698 24.5608C26.632 24.7986 26.632 25.1552 26.8698 25.393C26.9886 25.5119 27.1076 25.5714 27.2859 25.5714Z" fill="white"/>
</g>
</g>
</g>
</g>
<defs>
<clipPath id="clip0_224_1418">
<rect width="33.293" height="33.293" fill="white" transform="translate(0.53125 0.00683594)"/>
</clipPath>
</defs>
</svg>
