<svg width="57" height="52" viewBox="0 0 57 52" fill="none" xmlns="http://www.w3.org/2000/svg">
<g id="Group 2">
<path id="Vector" d="M0.525391 51.6013H23.2901L23.2995 46.4108L22.8101 46.2831C14.2962 43.7209 8.06971 35.7744 8.06971 26.3907C8.06971 14.9412 17.3366 5.62371 28.726 5.62371C40.1154 5.62371 49.3822 14.9365 49.3822 26.3907C49.3822 36.0769 42.1344 43.7682 34.176 46.2831L33.823 46.4249L33.8371 51.606H56.6348L53.8627 46.4249H43.7581C44.4923 45.8435 45.4101 45.0824 46.0925 44.4206C51.2224 39.4664 54.051 33.0609 54.051 26.3907C54.051 12.3554 42.6945 0.938965 28.726 0.938965C14.7575 0.938965 3.40569 12.3554 3.40569 26.3907C3.40569 34.4365 7.30257 41.7591 13.1196 46.4249H3.45746L0.525391 51.606V51.6013Z" fill="#403579"/>
<path id="Vector_2" d="M25.9082 13.1736L28.6567 10.4507L31.2358 13.1736V51.6064H25.9082V13.1736Z" fill="#403579"/>
<path id="Vector_3" d="M39.0071 40.9277C39.0071 40.9277 38.1694 41.6179 36.7527 42.2939C35.3361 42.9699 33.8301 43.5749 33.8301 43.5749V15.769L39.0071 20.9312V40.9277Z" fill="#403579"/>
<path id="Vector_4" d="M18.1309 40.9327C18.1309 40.9327 18.9686 41.6229 20.3852 42.2989C21.8018 42.9749 23.3079 43.58 23.3079 43.58V15.7788L18.1309 20.941V40.9374V40.9327Z" fill="#403579"/>
</g>
</svg>
