<svg width="892" height="802" viewBox="0 0 892 802" fill="none" xmlns="http://www.w3.org/2000/svg">
<path d="M280.109 632.474C280.109 632.474 293.421 643.381 315.931 654.064C338.442 664.747 362.373 674.31 362.373 674.31L362.373 234.961L280.109 316.54L280.109 632.549V632.474Z" fill="#FAFAFA"/>
<path d="M403.805 193.798L447.479 150.767L488.461 193.798L488.461 801.161H403.805L403.805 193.798Z" fill="#FAFAFA"/>
<path d="M0.414063 801.086L362.149 801.086L362.299 719.059L354.521 717.042C219.235 676.551 120.294 550.969 120.294 402.677C120.294 221.738 267.546 74.4911 448.526 74.4911C629.505 74.4911 776.757 221.663 776.757 402.677C776.757 555.75 661.588 677.298 535.127 717.042L529.518 719.283L529.742 801.161H892.001L847.952 719.283H687.389C699.055 710.094 713.638 698.066 724.482 687.607C805.998 609.315 850.944 508.088 850.944 402.677C850.944 180.873 670.487 0.457031 448.526 0.457031C226.564 0.457031 46.1825 180.873 46.1825 402.677C46.1825 529.827 108.104 645.547 200.539 719.283H47.0051L0.414063 801.161L0.414063 801.086Z" fill="#FAFAFA"/>
<path d="M611.857 632.397C611.857 632.397 598.545 643.305 576.035 653.988C553.525 664.671 529.594 674.233 529.594 674.233L529.594 234.81L611.857 316.389V632.397Z" fill="#FAFAFA"/>
</svg>
