<svg width="563" height="115" viewBox="0 0 563 115" fill="none" xmlns="http://www.w3.org/2000/svg">
<path d="M0.979959 0.486328H84.5531C92.2605 8.08351 99.8816 15.594 107.416 22.989C96.2005 64.8458 90.0173 87.8106 88.8094 91.8548C87.1127 92.808 76.9608 99.3364 58.3538 111.44C55.7655 113.231 54.1838 114.126 53.6374 114.126H25.6263C12.3397 101.127 4.71859 93.5591 2.76299 91.3926C14.6979 47.0516 20.9961 23.5668 21.5713 20.967C7.96837 7.6791 1.12372 0.832968 0.951172 0.486328H0.979959ZM31.6656 91.3926H60.1081L78.485 23.2201H50.2439C49.8988 23.2201 47.9431 30.2684 44.4058 44.3651C44.1182 44.914 39.8619 60.5994 31.6369 91.3926H31.6656Z" fill="white"/>
<path d="M100.483 0.486328H184.057C191.534 7.88131 195.33 11.6366 195.474 11.7521C205.367 5.25262 211.291 1.49736 213.161 0.486328H241.402C249.109 8.08351 256.73 15.594 264.265 22.989C248.448 81.7444 240.28 112.133 239.849 114.126H210.946C211.406 111.989 219.545 81.6867 235.362 23.2201H207.121C206.776 23.2201 205.885 26.3688 204.447 32.666C203.095 36.9701 195.79 64.1236 182.504 114.126H153.601C154.061 111.989 162.2 81.6867 178.017 23.2201H149.776C149.431 23.2201 148.539 26.3688 147.101 32.666C145.75 36.9701 138.445 64.1236 125.158 114.126H96.2559L121.132 20.967C107.529 7.6791 100.685 0.832968 100.512 0.486328H100.483Z" fill="white"/>
<path d="M257.24 0.486328H340.813C354.1 13.4853 361.721 21.0536 363.676 23.2201H306.561C306.216 23.2201 305.325 26.3688 303.887 32.666C302.535 36.9124 301.356 41.332 300.292 45.9539H328.734C328.734 46.5027 326.721 54.071 322.695 68.6877H294.022L287.983 91.4215H345.328C341.733 104.478 339.72 112.047 339.289 114.155H253.041L277.917 20.9958C264.314 7.70799 257.47 0.861855 257.297 0.515215L257.24 0.486328Z" fill="white"/>
<path d="M356.697 0.482012H440.27C453.557 13.481 461.178 21.0493 463.133 23.2158H406.018C405.673 23.2158 403.717 30.2641 400.18 44.3608C399.893 44.9097 395.636 60.5951 387.411 91.3882H415.854L421.893 68.6545H407.542C411.569 54.0667 413.582 46.4695 413.582 45.9207H456.835L438.688 114.093H381.343C368.056 101.094 360.435 93.5259 358.48 91.3594C370.415 47.0184 376.713 23.5335 377.288 20.9337C363.685 7.6459 356.841 0.799765 356.668 0.453125L356.697 0.482012Z" fill="white"/>
<path d="M456.2 0.486328H539.773L562.637 22.989C546.819 81.7444 538.681 112.133 538.22 114.126H509.318L521.425 68.6588H492.983L480.875 114.126H451.973L476.849 20.967C463.246 7.6791 456.401 0.832968 456.229 0.486328H456.2ZM499.223 45.9539H527.666C527.666 45.4628 529.679 37.8656 533.705 23.2201H505.464C505.119 23.2201 504.227 26.3688 502.789 32.666C501.438 36.9124 500.259 41.332 499.195 45.9539H499.223Z" fill="white"/>
</svg>
