<svg width="29" height="26" viewBox="0 0 29 26" fill="none" xmlns="http://www.w3.org/2000/svg">
<g id="Group 2">
<path id="Vector" d="M0.046875 25.9552H11.499L11.5038 23.344L11.2575 23.2798C6.97451 21.9909 3.84216 17.9932 3.84216 13.2726C3.84216 7.51279 8.50399 2.82548 14.2336 2.82548C19.9632 2.82548 24.6251 7.51041 24.6251 13.2726C24.6251 18.1454 20.979 22.0147 16.9753 23.2798L16.7977 23.3512L16.8049 25.9576H28.2736L26.8791 23.3512H21.7958C22.1651 23.0587 22.6268 22.6758 22.9701 22.3428C25.5508 19.8506 26.9738 16.6282 26.9738 13.2726C26.9738 6.21195 21.2607 0.46875 14.2336 0.46875C7.20654 0.46875 1.49586 6.21195 1.49586 13.2726C1.49586 17.3202 3.45624 21.004 6.38261 23.3512H1.5219L0.046875 25.9576V25.9552Z" fill="white"/>
<path id="Vector_2" d="M12.8203 6.62371L14.203 5.25391L15.5005 6.62371V25.958H12.8203V6.62371Z" fill="white"/>
<path id="Vector_3" d="M19.4013 20.5861C19.4013 20.5861 18.9798 20.9333 18.2672 21.2734C17.5545 21.6135 16.7969 21.9179 16.7969 21.9179V7.92969L19.4013 10.5266V20.5861Z" fill="white"/>
<path id="Vector_4" d="M8.89844 20.5877C8.89844 20.5877 9.31987 20.9349 10.0325 21.2749C10.7452 21.615 11.5028 21.9194 11.5028 21.9194V7.93359L8.89844 10.5305V20.59V20.5877Z" fill="white"/>
</g>
</svg>
