<svg width="33" height="33" viewBox="0 0 33 33" fill="none" xmlns="http://www.w3.org/2000/svg">
<g id="tools-svgrepo-com 1">
<path id="Vector" d="M30.1582 26.0271L24.5032 20.3721L25.2572 19.6181L24.5032 18.8641L22.2422 21.1251L18.4712 17.3551L23.0012 12.8231C23.6042 13.0381 24.2352 13.1471 24.8832 13.1471C26.3762 13.1471 27.7802 12.5651 28.8372 11.5101C30.4672 9.87908 30.9292 7.45608 30.0152 5.33608L29.7042 4.61408L27.2742 7.04408L25.3182 7.07108L25.3442 5.20508L27.8212 2.72808L27.1012 2.41608C26.3952 2.11008 25.6442 1.95508 24.8722 1.95508C23.3782 1.95508 21.9752 2.53708 20.9202 3.59208C19.3742 5.13708 18.8772 7.39408 19.6092 9.43208L15.0802 13.9611L8.67121 7.55308L9.42521 6.79908L5.28021 2.65308L3.01621 4.91408L7.16321 9.06108L7.91621 8.30708L14.3252 14.7151L9.79621 19.2441C9.19121 19.0271 8.55721 18.9181 7.90821 18.9181C6.41521 18.9181 5.01121 19.5001 3.95521 20.5551C2.32221 22.1871 1.86021 24.6141 2.77921 26.7361L3.09121 27.4561L5.56821 24.9791L7.43321 24.9541L7.40621 26.9101L4.97621 29.3401L5.69821 29.6511C6.40221 29.9541 7.15021 30.1091 7.91921 30.1091C9.41321 30.1091 10.8162 29.5281 11.8712 28.4731C13.4152 26.9291 13.9122 24.6741 13.1852 22.6401L17.7172 18.1081L21.4882 21.8771L19.2252 24.1401L19.9792 24.8941L20.7332 24.1401L26.3872 29.7941C26.8902 30.2981 27.5612 30.5751 28.2722 30.5751C28.9832 30.5751 29.6532 30.2981 30.1572 29.7941C31.1962 28.7551 31.1962 27.0641 30.1572 26.0251L30.1582 26.0271ZM4.52521 4.91508L5.27921 4.16208L7.91721 6.80008L7.16321 7.55408L4.52521 4.91508ZM12.0742 22.7231C12.8132 24.4391 12.4382 26.4021 11.1192 27.7221C10.2652 28.5761 9.13021 29.0461 7.92121 29.0461C7.57421 29.0461 7.23221 29.0071 6.90021 28.9301L8.46921 27.3611L8.51621 23.8761L5.12221 23.9221L3.50321 25.5411C3.14721 24.0311 3.58421 22.4381 4.71121 21.3121C5.56521 20.4581 6.70121 19.9871 7.91021 19.9871C8.53621 19.9871 9.14321 20.1121 9.71621 20.3601L10.0492 20.5041L20.8682 9.68508L20.7242 9.35208C19.9802 7.63308 20.3542 5.67008 21.6762 4.34808C22.5302 3.49408 23.6662 3.02308 24.8742 3.02308C25.2242 3.02308 25.5692 3.06308 25.9042 3.14008L24.2862 4.75808L24.2392 8.15208L27.7242 8.10508L29.2942 6.53508C29.6462 8.04208 29.2082 9.63208 28.0852 10.7561C27.2302 11.6101 26.0942 12.0811 24.8852 12.0811C24.2612 12.0811 23.6552 11.9561 23.0842 11.7101L22.7522 11.5671L11.9312 22.3901L12.0742 22.7231ZM29.4052 29.0421C29.1032 29.3441 28.7012 29.5111 28.2742 29.5111C27.8472 29.5111 27.4452 29.3441 27.1432 29.0421L21.4892 23.3881L23.7512 21.1261L29.4062 26.7811C30.0302 27.4051 30.0302 28.4191 29.4072 29.0421H29.4052Z" fill="black"/>
</g>
</svg>
