<svg width="58" height="58" viewBox="0 0 58 58" fill="none" xmlns="http://www.w3.org/2000/svg">
<g clip-path="url(#clip0_224_1412)">
<path d="M29.3443 31.3961L31.0067 30.7777L32.6733 29.9818L38.3803 25.0959L43.0742 21.3983L44.0683 19.3256L41.0881 16.127H38.7817L34.151 20.8725L30.5205 23.8692L30.5107 23.8587L30.4389 23.9359L28.2766 26.2607L27.6641 27.4048L26.8804 28.8685L21.9516 33.416C21.9622 33.1504 21.9438 32.9088 21.9109 32.6953C21.6719 31.1453 20.5017 29.7902 18.4327 28.6675C16.9287 27.8514 15.6673 27.4546 14.5773 27.4546C13.743 27.4546 13.0243 27.6895 12.4418 28.1526C11.0102 29.2878 11.0062 31.4243 11.34 32.5038C11.7761 33.9129 12.6424 34.4359 13.2953 34.6276C13.546 34.7004 13.8119 34.7375 14.0864 34.7375C15.5361 34.7375 16.8581 33.7178 17.1098 33.5131C17.3702 33.2997 17.53 32.9996 17.5604 32.6691C17.5909 32.3375 17.4878 32.0151 17.2705 31.76C17.0287 31.4754 16.6739 31.3126 16.2967 31.3126C15.9984 31.3126 15.7087 31.4162 15.4885 31.5985C15.1601 31.8616 14.4909 32.2511 14.0965 32.2511C14.0543 32.2511 14.031 32.2456 14.0189 32.2418C13.9956 32.235 13.8761 32.1314 13.7681 31.7813C13.6029 31.2468 13.6946 30.3605 14.0381 30.0883C14.1548 29.9954 14.3375 29.9482 14.5806 29.9482C15.0231 29.9482 15.8376 30.1043 17.2051 30.8468C18.5289 31.5653 19.2893 32.3326 19.4024 33.0678C19.5202 33.833 18.9331 34.6065 18.5356 35.0477H10.7793V42.0598H43.8277V36.7271H23.4013L29.3443 31.3961ZM34.8469 21.5999L39.2153 17.1228H40.641L42.8612 19.5052L42.2567 20.766L37.7075 24.3492L33.5357 28.3359L30.6546 25.0607L34.8469 21.5999ZM30.5078 25.341L33.2249 28.295L31.372 29.7176L28.8267 27.1483L30.5078 25.341ZM42.8127 37.7227V41.063H11.7941V40.814V36.2913V36.0423H12.0479H18.9775C18.991 36.0288 19.0069 36.0127 19.0226 35.9962C19.4199 35.5913 20.6287 34.3572 20.4074 32.918C20.2431 31.8508 19.3315 30.8603 17.6976 29.9745C15.7043 28.8928 14.219 28.6638 13.4003 29.3141C12.6038 29.9472 12.5698 31.333 12.7979 32.0706C12.9905 32.6925 13.3035 33.0708 13.7286 33.1956C14.737 33.4937 16.1219 32.3773 16.135 32.3663C16.2421 32.2777 16.4019 32.2917 16.4924 32.3978C16.5821 32.5029 16.5675 32.6599 16.4604 32.748C16.3955 32.8008 14.8577 34.0427 13.5842 33.6725C12.9853 33.4965 12.5576 33.0066 12.3123 32.2149C12.0363 31.3214 12.0918 29.7115 13.0812 28.9266C14.0859 28.1283 15.7226 28.3337 17.9432 29.5388C19.7217 30.5034 20.7201 31.6159 20.9094 32.8441C21.125 34.2463 20.2303 35.4278 19.6723 36.0423H20.5881L27.7017 29.4796L28.7287 27.5601L30.9661 29.7281L28.802 30.5327L20.787 37.7228H42.8127V37.7227Z" fill="white"/>
</g>
<rect x="0.603516" y="1.01465" width="56.1567" height="56.1567" stroke="white"/>
<defs>
<clipPath id="clip0_224_1412">
<rect width="33.2891" height="32.661" fill="white" transform="translate(10.7793 12.7627)"/>
</clipPath>
</defs>
</svg>
