<svg width="113" height="52" viewBox="0 0 113 52" fill="none" xmlns="http://www.w3.org/2000/svg">
<path d="M0.0273438 37.1174H16.6077L16.6145 33.3369L16.258 33.2439C10.0571 31.3778 5.52212 25.59 5.52212 18.7556C5.52212 10.4166 12.2715 3.63032 20.5668 3.63032C28.8621 3.63032 35.6114 10.4131 35.6114 18.7556C35.6114 25.8104 30.3326 31.4122 24.5362 33.2439L24.2791 33.3472L24.2894 37.1208H40.8937L38.8747 33.3472H31.5152C32.0499 32.9237 32.7184 32.3694 33.2154 31.8874C36.9517 28.2791 39.0118 23.6137 39.0118 18.7556C39.0118 8.53321 30.7405 0.218262 20.5668 0.218262C10.393 0.218262 2.12516 8.53321 2.12516 18.7556C2.12516 24.6157 4.96339 29.9489 9.20016 33.3472H2.16287L0.0273438 37.1208V37.1174Z" fill="#010101"/>
<path d="M18.5195 9.12919L20.5214 7.146L22.3998 9.12919V37.1211H18.5195V9.12919Z" fill="#010101"/>
<path d="M28.0557 29.3429C28.0557 29.3429 27.4456 29.8456 26.4138 30.338C25.3821 30.8303 24.2852 31.271 24.2852 31.271V11.019L28.0557 14.7788V29.3429Z" fill="#010101"/>
<path d="M12.8477 29.3473C12.8477 29.3473 13.4578 29.85 14.4896 30.3423C15.5213 30.8347 16.6182 31.2754 16.6182 31.2754V11.0269L12.8477 14.7867V29.3507V29.3473Z" fill="#010101"/>
<path d="M45.0855 7.10498H55.0467C55.9653 8.0105 56.8737 8.90569 57.7718 9.78711C56.4349 14.7761 55.698 17.5133 55.554 17.9953C55.3518 18.1089 54.1417 18.8871 51.9239 20.3297C51.6154 20.5432 51.4269 20.6499 51.3618 20.6499H48.0231C46.4394 19.1005 45.5311 18.1985 45.298 17.9402C46.7205 12.6552 47.4712 9.85597 47.5398 9.5461C45.9184 7.9623 45.1026 7.1463 45.082 7.10498H45.0855ZM48.7429 17.9402H52.133L54.3234 9.81466H50.9573C50.9162 9.81466 50.6831 10.6548 50.2615 12.335C50.2272 12.4004 49.7199 14.27 48.7395 17.9402H48.7429Z" fill="#010101"/>
<path d="M56.9453 7.10498H66.9065C67.7977 7.9864 68.2502 8.43399 68.2674 8.44777C69.4465 7.67308 70.1526 7.22549 70.3755 7.10498H73.7416C74.6602 8.0105 75.5686 8.90569 76.4667 9.78711C74.5814 16.7903 73.6079 20.4123 73.5565 20.6499H70.1115C70.1664 20.3951 71.1364 16.7834 73.0217 9.81466H69.6556C69.6145 9.81466 69.5082 10.1899 69.3368 10.9405C69.1757 11.4535 68.3051 14.69 66.7214 20.6499H63.2765C63.3313 20.3951 64.3014 16.7834 66.1867 9.81466H62.8206C62.7794 9.81466 62.6732 10.1899 62.5018 10.9405C62.3407 11.4535 61.47 14.69 59.8864 20.6499H56.4414L59.4065 9.5461C57.7851 7.9623 56.9693 7.1463 56.9487 7.10498H56.9453Z" fill="#010101"/>
<path d="M75.6294 7.10498H85.5906C87.1742 8.65435 88.0826 9.55643 88.3157 9.81466H81.5081C81.4669 9.81466 81.3607 10.1899 81.1893 10.9405C81.0282 11.4467 80.8876 11.9734 80.7608 12.5243H84.1509C84.1509 12.5897 83.911 13.4918 83.4311 15.234H80.0135L79.2937 17.9437H86.1287C85.7003 19.4999 85.4603 20.402 85.4089 20.6534H75.1289L78.094 9.54954C76.4726 7.96574 75.6568 7.14974 75.6362 7.10842L75.6294 7.10498Z" fill="#010101"/>
<path d="M87.4917 7.10452H97.4529C99.0366 8.65389 99.9449 9.55596 100.178 9.81419H93.3704C93.3293 9.81419 93.0962 10.6543 92.6746 12.3345C92.6403 12.3999 92.133 14.2695 91.1526 17.9398H94.5427L95.2626 15.2301H93.5521C94.032 13.4914 94.2719 12.5858 94.2719 12.5204H99.4273L97.2644 20.646H90.4293C88.8457 19.0966 87.9373 18.1946 87.7042 17.9363C89.1268 12.6513 89.8775 9.85207 89.946 9.54219C88.3247 7.95839 87.5088 7.14239 87.4883 7.10107L87.4917 7.10452Z" fill="#010101"/>
<path d="M99.3437 7.10498H109.305L112.03 9.78711C110.145 16.7903 109.175 20.4123 109.12 20.6499H105.675L107.118 15.2306H103.728L102.285 20.6499H98.8398L101.805 9.5461C100.184 7.9623 99.3677 7.1463 99.3472 7.10498H99.3437ZM104.472 12.5243H107.862C107.862 12.4658 108.102 11.5603 108.582 9.81466H105.216C105.174 9.81466 105.068 10.1899 104.897 10.9405C104.736 11.4467 104.595 11.9734 104.468 12.5243H104.472Z" fill="#010101"/>
<path d="M44.042 23.5791H54.0032C55.5869 25.1285 56.4952 26.0306 56.7283 26.2888H49.9207C49.8796 26.2888 49.6465 27.1289 49.2249 28.8091C49.1906 28.8745 48.6833 30.7441 47.7029 34.4144H51.093L51.8129 31.7047H50.1024C50.5823 29.966 50.8222 29.0605 50.8222 28.995H55.9742L53.8113 37.1206H46.9762C45.3926 35.5712 44.4842 34.6692 44.2511 34.4109C45.6737 29.1259 46.4243 26.3267 46.4929 26.0168C44.8715 24.433 44.0557 23.617 44.0352 23.5757L44.042 23.5791Z" fill="#010101"/>
<path d="M55.8984 23.5796H65.8596C66.7783 24.4851 67.6867 25.3803 68.5847 26.2617C68.194 27.7353 67.9437 28.6546 67.8375 29.023C66.5315 29.8528 65.8459 30.297 65.7808 30.3658C66.672 31.23 67.1176 31.6845 67.1176 31.7327C66.2093 35.0828 65.7294 36.8801 65.6745 37.1245H62.2296L63.6727 31.7052H60.2826L58.8395 37.1245H55.3945L58.3596 26.0207C56.7382 24.4369 55.9224 23.6209 55.9018 23.5796H55.8984ZM61.0264 28.9989H64.4165C64.4165 28.9404 64.6565 28.0349 65.1364 26.2893H61.7703C61.7291 26.2893 61.6229 26.6646 61.4515 27.4151C61.2904 27.9213 61.1498 28.4481 61.023 28.9989H61.0264Z" fill="#010101"/>
<path d="M67.7573 23.5796H77.7185C78.6372 24.4851 79.5456 25.3803 80.4437 26.2617C79.1102 31.2507 78.3698 33.9879 78.2259 34.4699C78.0236 34.5836 76.8136 35.3617 74.5958 36.8043C74.2873 37.0178 74.0988 37.1245 74.0337 37.1245H70.695C69.1113 35.5752 68.2029 34.6731 67.9699 34.4148C69.3924 29.1298 70.1431 26.3306 70.2116 26.0207C68.5903 24.4369 67.7745 23.6209 67.7539 23.5796H67.7573ZM71.4148 34.4148H74.8049L76.9953 26.2893H73.6292C73.588 26.2893 73.3549 27.1294 72.9333 28.8096C72.899 28.875 72.3917 30.7446 71.4114 34.4148H71.4148Z" fill="#010101"/>
<path d="M79.6128 23.5796H86.1805L83.2703 34.4148H86.6604L89.5706 23.5796C90.4892 24.4851 91.3976 25.3803 92.2957 26.2617C90.4104 33.2649 89.4403 36.887 89.3855 37.1245H79.1055L82.0705 26.0207C80.4492 24.4369 79.6334 23.6209 79.6128 23.5796Z" fill="#010101"/>
<path d="M91.4722 23.5796H101.433C102.352 24.4851 103.26 25.3803 104.158 26.2617C103.713 27.966 103.456 28.8956 103.384 29.0506C103.182 29.1642 101.972 29.9423 99.7538 31.385C99.4453 31.5984 99.2567 31.7086 99.1916 31.7086H95.8529L94.4098 37.128H90.9648L93.9299 26.0241C92.3085 24.4403 91.4927 23.6244 91.4722 23.583V23.5796ZM96.6002 28.9989H99.9903C99.9903 28.9404 100.23 28.0349 100.71 26.2893H97.344C97.3029 26.2893 97.1966 26.6646 97.0252 27.4151C96.8641 27.9213 96.7236 28.4481 96.5967 28.9989H96.6002Z" fill="#010101"/>
<path d="M97.1283 34.0186H98.6365L97.9681 36.5045H99.5346C99.4352 36.8625 99.3803 37.0691 99.3701 37.1242H97.0117L97.6904 34.5764C97.3202 34.2114 97.1317 34.0255 97.1283 34.0151V34.0186Z" fill="#010101"/>
<path d="M99.8477 34.019H102.134C102.497 34.3737 102.706 34.5803 102.758 34.6422H101.98C101.98 34.6422 101.945 34.7283 101.908 34.9005C101.87 35.0175 101.671 35.7612 101.308 37.1281H100.516C100.53 37.0696 100.753 36.2398 101.184 34.6422H100.475C100.06 34.2325 99.8511 34.0259 99.8511 34.019H99.8477Z" fill="#010101"/>
<path d="M102.574 34.0186H104.86C105.072 34.2252 105.278 34.4317 105.484 34.6349C105.179 35.778 105.007 36.4081 104.976 36.5182C104.928 36.5458 104.651 36.7214 104.144 37.0519C104.072 37.1001 104.03 37.1242 104.013 37.1242H102.457L103.136 34.5764C102.766 34.2114 102.577 34.0255 102.574 34.0151V34.0186ZM103.413 36.5045H104.192L104.692 34.6418H103.921C103.921 34.6418 103.859 34.8346 103.763 35.2202C103.756 35.234 103.64 35.6644 103.413 36.5045Z" fill="#010101"/>
<g opacity="0.8">
<path d="M0.0273438 49.2621V41.6694H2.68183C3.21075 41.6694 3.64699 41.7608 3.99054 41.9437C4.33409 42.1242 4.5899 42.3676 4.75797 42.6741C4.92604 42.9781 5.01007 43.3155 5.01007 43.6862C5.01007 44.0125 4.95199 44.2819 4.83583 44.4944C4.72213 44.707 4.57137 44.875 4.38353 44.9986C4.19816 45.1222 3.99672 45.2137 3.77922 45.273V45.3471C4.01155 45.3619 4.24512 45.4435 4.47992 45.5918C4.71472 45.7401 4.91121 45.9527 5.06939 46.2295C5.22757 46.5063 5.30667 46.8449 5.30667 47.2453C5.30667 47.6259 5.22016 47.9682 5.04715 48.2722C4.87414 48.5763 4.60103 48.8172 4.22781 48.9952C3.8546 49.1731 3.36894 49.2621 2.77081 49.2621H0.0273438ZM0.946776 48.4465H2.77081C3.37141 48.4465 3.79776 48.3303 4.04986 48.098C4.30443 47.8632 4.43172 47.579 4.43172 47.2453C4.43172 46.9883 4.36622 46.751 4.23523 46.5335C4.10424 46.3135 3.91763 46.138 3.67541 46.007C3.4332 45.8736 3.14649 45.8068 2.8153 45.8068H0.946776V48.4465ZM0.946776 45.006H2.65217C2.92899 45.006 3.17862 44.9517 3.40107 44.8429C3.62598 44.7342 3.80394 44.5809 3.93493 44.3832C4.0684 44.1855 4.13513 43.9531 4.13513 43.6862C4.13513 43.3525 4.01897 43.0695 3.78664 42.8372C3.55431 42.6024 3.18604 42.485 2.68183 42.485H0.946776V45.006Z" fill="#010101"/>
<path d="M10.2875 46.9339V43.5676H11.1625V49.2621H10.2875V48.2982H10.2282C10.0948 48.5874 9.88714 48.8333 9.60538 49.036C9.32362 49.2362 8.96771 49.3363 8.53765 49.3363C8.18174 49.3363 7.86538 49.2584 7.58856 49.1027C7.31174 48.9445 7.09424 48.7072 6.93606 48.3909C6.77788 48.072 6.69879 47.6704 6.69879 47.186V43.5676H7.57373V47.1267C7.57373 47.5419 7.6899 47.8731 7.92223 48.1202C8.15703 48.3674 8.45609 48.491 8.81942 48.491C9.03692 48.491 9.25812 48.4354 9.48304 48.3241C9.71042 48.2129 9.90074 48.0424 10.054 47.8125C10.2097 47.5827 10.2875 47.2898 10.2875 46.9339Z" fill="#010101"/>
<path d="M12.765 49.2621V43.5676H13.6399V49.2621H12.765ZM13.2099 42.6185C13.0394 42.6185 12.8923 42.5604 12.7687 42.4442C12.6476 42.3281 12.587 42.1884 12.587 42.0253C12.587 41.8622 12.6476 41.7225 12.7687 41.6064C12.8923 41.4902 13.0394 41.4321 13.2099 41.4321C13.3804 41.4321 13.5263 41.4902 13.6474 41.6064C13.7709 41.7225 13.8327 41.8622 13.8327 42.0253C13.8327 42.1884 13.7709 42.3281 13.6474 42.4442C13.5263 42.5604 13.3804 42.6185 13.2099 42.6185Z" fill="#010101"/>
<path d="M16.1174 41.6694V49.2621H15.2425V41.6694H16.1174Z" fill="#010101"/>
<path d="M19.8702 49.3808C19.3957 49.3808 18.9767 49.2609 18.6134 49.0211C18.2501 48.7789 17.9659 48.4378 17.7607 47.9979C17.5556 47.5555 17.453 47.0327 17.453 46.4297C17.453 45.8315 17.5556 45.3125 17.7607 44.8726C17.9659 44.4326 18.2513 44.0928 18.6171 43.853C18.9829 43.6133 19.4056 43.4934 19.885 43.4934C20.2558 43.4934 20.5487 43.5552 20.7637 43.6788C20.9812 43.7999 21.1468 43.9383 21.2605 44.094C21.3766 44.2473 21.4669 44.3733 21.5311 44.4722H21.6053V41.6694H22.4802V49.2621H21.6349V48.3872H21.5311C21.4669 48.491 21.3754 48.622 21.2568 48.7802C21.1381 48.9359 20.9688 49.0755 20.7489 49.1991C20.5289 49.3202 20.236 49.3808 19.8702 49.3808ZM19.9889 48.5948C20.3398 48.5948 20.6364 48.5033 20.8786 48.3204C21.1208 48.1351 21.305 47.8793 21.431 47.553C21.5571 47.2243 21.6201 46.8449 21.6201 46.4148C21.6201 45.9897 21.5583 45.6178 21.4347 45.2989C21.3112 44.9776 21.1283 44.728 20.886 44.55C20.6438 44.3696 20.3448 44.2794 19.9889 44.2794C19.6181 44.2794 19.3092 44.3745 19.062 44.5649C18.8173 44.7527 18.6332 45.0085 18.5096 45.3323C18.3885 45.6536 18.3279 46.0144 18.3279 46.4148C18.3279 46.8202 18.3897 47.1885 18.5133 47.5196C18.6394 47.8484 18.8247 48.1104 19.0694 48.3056C19.3166 48.4984 19.6231 48.5948 19.9889 48.5948Z" fill="#010101"/>
<path d="M24.2042 49.2621V43.5676H25.0791V49.2621H24.2042ZM24.649 42.6185C24.4785 42.6185 24.3314 42.5604 24.2079 42.4442C24.0867 42.3281 24.0262 42.1884 24.0262 42.0253C24.0262 41.8622 24.0867 41.7225 24.2079 41.6064C24.3314 41.4902 24.4785 41.4321 24.649 41.4321C24.8196 41.4321 24.9654 41.4902 25.0865 41.6064C25.2101 41.7225 25.2719 41.8622 25.2719 42.0253C25.2719 42.1884 25.2101 42.3281 25.0865 42.4442C24.9654 42.5604 24.8196 42.6185 24.649 42.6185Z" fill="#010101"/>
<path d="M27.5566 45.8365V49.2621H26.6816V43.5676H27.5269V44.4573H27.601C27.7345 44.1682 27.9372 43.9358 28.2091 43.7604C28.4809 43.5824 28.8319 43.4934 29.262 43.4934C29.6475 43.4934 29.9849 43.5725 30.2741 43.7307C30.5632 43.8864 30.7882 44.1237 30.9488 44.4425C31.1095 44.7589 31.1898 45.1593 31.1898 45.6437V49.2621H30.3149V45.703C30.3149 45.2557 30.1987 44.9072 29.9664 44.6575C29.734 44.4054 29.4152 44.2794 29.0099 44.2794C28.7306 44.2794 28.4809 44.3399 28.261 44.461C28.0435 44.5822 27.8717 44.7589 27.7456 44.9912C27.6196 45.2235 27.5566 45.5053 27.5566 45.8365Z" fill="#010101"/>
<path d="M35.0872 51.5162C34.6645 51.5162 34.3012 51.4618 33.9972 51.3531C33.6932 51.2468 33.4399 51.1059 33.2372 50.9304C33.037 50.7574 32.8776 50.5721 32.7589 50.3743L33.4559 49.885C33.535 49.9888 33.6351 50.1074 33.7562 50.2409C33.8773 50.3768 34.0429 50.4942 34.253 50.5931C34.4656 50.6944 34.7436 50.7451 35.0872 50.7451C35.5469 50.7451 35.9263 50.6339 36.2254 50.4114C36.5244 50.189 36.674 49.8405 36.674 49.3659V48.2092H36.5998C36.5355 48.313 36.4441 48.4415 36.3255 48.5948C36.2093 48.7456 36.0412 48.8803 35.8213 48.9989C35.6038 49.1151 35.3096 49.1731 34.9389 49.1731C34.4792 49.1731 34.0664 49.0644 33.7006 48.8469C33.3373 48.6294 33.0494 48.313 32.8368 47.8978C32.6267 47.4826 32.5217 46.9784 32.5217 46.3852C32.5217 45.8019 32.6242 45.294 32.8294 44.8614C33.0345 44.4264 33.32 44.0903 33.6858 43.853C34.0516 43.6133 34.4742 43.4934 34.9537 43.4934C35.3245 43.4934 35.6186 43.5552 35.8361 43.6788C36.0561 43.7999 36.2241 43.9383 36.3403 44.094C36.4589 44.2473 36.5504 44.3733 36.6146 44.4722H36.7036V43.5676H37.5489V49.4252C37.5489 49.9146 37.4377 50.3125 37.2152 50.619C36.9953 50.928 36.6987 51.1541 36.3255 51.2975C35.9547 51.4433 35.542 51.5162 35.0872 51.5162ZM35.0575 48.3872C35.4085 48.3872 35.7051 48.3068 35.9473 48.1462C36.1895 47.9855 36.3737 47.7544 36.4997 47.4529C36.6258 47.1514 36.6888 46.7905 36.6888 46.3704C36.6888 45.9601 36.627 45.598 36.5034 45.2841C36.3798 44.9702 36.1969 44.7243 35.9547 44.5463C35.7125 44.3684 35.4134 44.2794 35.0575 44.2794C34.6868 44.2794 34.3778 44.3733 34.1307 44.5611C33.886 44.749 33.7019 45.0011 33.5783 45.3175C33.4572 45.6338 33.3966 45.9848 33.3966 46.3704C33.3966 46.7658 33.4584 47.1155 33.582 47.4195C33.708 47.7211 33.8934 47.9584 34.1381 48.1314C34.3853 48.3019 34.6917 48.3872 35.0575 48.3872Z" fill="#010101"/>
<path d="M43.7625 49.3956C43.4016 49.3956 43.0741 49.3276 42.78 49.1917C42.4859 49.0533 42.2523 48.8543 42.0793 48.5948C41.9063 48.3328 41.8198 48.0164 41.8198 47.6457C41.8198 47.3194 41.8841 47.055 42.0126 46.8523C42.1411 46.6472 42.3129 46.4865 42.5279 46.3704C42.7429 46.2542 42.9802 46.1677 43.2397 46.1108C43.5017 46.0515 43.7649 46.0046 44.0294 45.97C44.3754 45.9255 44.656 45.8921 44.871 45.8699C45.0885 45.8451 45.2467 45.8044 45.3455 45.7475C45.4469 45.6907 45.4975 45.5918 45.4975 45.4509V45.4213C45.4975 45.0555 45.3974 44.7712 45.1972 44.5686C44.9995 44.3659 44.6992 44.2646 44.2963 44.2646C43.8786 44.2646 43.5512 44.356 43.3139 44.5389C43.0766 44.7218 42.9098 44.9171 42.8134 45.1247L41.9829 44.8281C42.1312 44.4821 42.329 44.2127 42.5761 44.0199C42.8257 43.8246 43.0976 43.6887 43.3917 43.6121C43.6883 43.533 43.98 43.4934 44.2667 43.4934C44.4496 43.4934 44.6597 43.5157 44.8969 43.5602C45.1367 43.6022 45.3678 43.6899 45.5902 43.8234C45.8151 43.9568 46.0017 44.1583 46.15 44.4277C46.2983 44.6971 46.3725 45.0579 46.3725 45.5102V49.2621H45.4975V48.491H45.453C45.3937 48.6146 45.2949 48.7468 45.1565 48.8877C45.018 49.0286 44.8339 49.1484 44.6041 49.2473C44.3742 49.3462 44.0937 49.3956 43.7625 49.3956ZM43.8959 48.6096C44.242 48.6096 44.5336 48.5416 44.7709 48.4057C45.0106 48.2698 45.1911 48.0943 45.3122 47.8793C45.4357 47.6642 45.4975 47.4381 45.4975 47.2008V46.4C45.4605 46.4445 45.3789 46.4853 45.2528 46.5224C45.1293 46.557 44.9859 46.5879 44.8228 46.615C44.6621 46.6398 44.5052 46.662 44.352 46.6818C44.2012 46.6991 44.0788 46.7139 43.9849 46.7263C43.7575 46.7559 43.545 46.8041 43.3473 46.8709C43.152 46.9351 42.9938 47.0327 42.8727 47.1637C42.7541 47.2923 42.6948 47.4677 42.6948 47.6902C42.6948 47.9942 42.8072 48.224 43.0321 48.3798C43.2595 48.533 43.5474 48.6096 43.8959 48.6096Z" fill="#010101"/>
<path d="M51.0243 49.2621V41.6694H51.8993V44.4722H51.9734C52.0377 44.3733 52.1267 44.2473 52.2403 44.094C52.3565 43.9383 52.5221 43.7999 52.7371 43.6788C52.9546 43.5552 53.2488 43.4934 53.6195 43.4934C54.099 43.4934 54.5216 43.6133 54.8874 43.853C55.2532 44.0928 55.5387 44.4326 55.7438 44.8726C55.949 45.3125 56.0515 45.8315 56.0515 46.4297C56.0515 47.0327 55.949 47.5555 55.7438 47.9979C55.5387 48.4378 55.2545 48.7789 54.8911 49.0211C54.5278 49.2609 54.1089 49.3808 53.6343 49.3808C53.2685 49.3808 52.9756 49.3202 52.7557 49.1991C52.5357 49.0755 52.3664 48.9359 52.2478 48.7802C52.1291 48.622 52.0377 48.491 51.9734 48.3872H51.8696V49.2621H51.0243ZM51.8844 46.4148C51.8844 46.8449 51.9475 47.2243 52.0735 47.553C52.1996 47.8793 52.3837 48.1351 52.6259 48.3204C52.8681 48.5033 53.1647 48.5948 53.5157 48.5948C53.8815 48.5948 54.1867 48.4984 54.4314 48.3056C54.6786 48.1104 54.8639 47.8484 54.9875 47.5196C55.1136 47.1885 55.1766 46.8202 55.1766 46.4148C55.1766 46.0144 55.1148 45.6536 54.9912 45.3323C54.8701 45.0085 54.686 44.7527 54.4388 44.5649C54.1941 44.3745 53.8864 44.2794 53.5157 44.2794C53.1598 44.2794 52.8607 44.3696 52.6185 44.55C52.3763 44.728 52.1934 44.9776 52.0698 45.2989C51.9462 45.6178 51.8844 45.9897 51.8844 46.4148Z" fill="#010101"/>
<path d="M59.7775 49.3808C59.2288 49.3808 58.7555 49.2596 58.3575 49.0174C57.9621 48.7727 57.6568 48.4317 57.4418 47.9942C57.2293 47.5542 57.123 47.0426 57.123 46.4593C57.123 45.876 57.2293 45.3619 57.4418 44.9171C57.6568 44.4697 57.9559 44.1212 58.339 43.8716C58.7246 43.6195 59.1744 43.4934 59.6885 43.4934C59.9851 43.4934 60.278 43.5429 60.5671 43.6417C60.8563 43.7406 61.1195 43.9012 61.3568 44.1237C61.5941 44.3436 61.7832 44.6353 61.924 44.9986C62.0649 45.3619 62.1354 45.8093 62.1354 46.3407V46.7114H57.7458V45.9551H61.2456C61.2456 45.6338 61.1813 45.3471 61.0528 45.095C60.9268 44.8429 60.7463 44.6439 60.5115 44.4981C60.2792 44.3523 60.0049 44.2794 59.6885 44.2794C59.34 44.2794 59.0385 44.3659 58.7839 44.5389C58.5318 44.7094 58.3378 44.9319 58.2018 45.2062C58.0659 45.4806 57.9979 45.7747 57.9979 46.0886V46.5928C57.9979 47.0229 58.0721 47.3874 58.2204 47.6865C58.3711 47.9831 58.58 48.2092 58.8469 48.3649C59.1138 48.5182 59.424 48.5948 59.7775 48.5948C60.0073 48.5948 60.2149 48.5627 60.4003 48.4984C60.5882 48.4317 60.75 48.3328 60.886 48.2018C61.0219 48.0683 61.127 47.9027 61.2011 47.705L62.0464 47.9423C61.9574 48.229 61.8079 48.4811 61.5978 48.6986C61.3877 48.9136 61.1282 49.0817 60.8192 49.2028C60.5103 49.3214 60.163 49.3808 59.7775 49.3808Z" fill="#010101"/>
<path d="M65.9429 43.5676V44.309H62.9918V43.5676H65.9429ZM63.8519 42.2033H64.7268V47.6309C64.7268 47.878 64.7627 48.0634 64.8343 48.187C64.9085 48.3081 65.0024 48.3896 65.1161 48.4317C65.2323 48.4712 65.3546 48.491 65.4831 48.491C65.5795 48.491 65.6586 48.486 65.7204 48.4762C65.7822 48.4638 65.8316 48.4539 65.8687 48.4465L66.0467 49.2325C65.9873 49.2547 65.9045 49.2769 65.7983 49.2992C65.692 49.3239 65.5573 49.3363 65.3942 49.3363C65.147 49.3363 64.9048 49.2831 64.6675 49.1768C64.4327 49.0706 64.2375 48.9087 64.0817 48.6912C63.9285 48.4737 63.8519 48.1993 63.8519 47.8681V42.2033Z" fill="#010101"/>
<path d="M69.7355 43.5676V44.309H66.7844V43.5676H69.7355ZM67.6446 42.2033H68.5195V47.6309C68.5195 47.878 68.5553 48.0634 68.627 48.187C68.7012 48.3081 68.7951 48.3896 68.9088 48.4317C69.0249 48.4712 69.1473 48.491 69.2758 48.491C69.3722 48.491 69.4513 48.486 69.5131 48.4762C69.5749 48.4638 69.6243 48.4539 69.6614 48.4465L69.8393 49.2325C69.78 49.2547 69.6972 49.2769 69.5909 49.2992C69.4847 49.3239 69.3499 49.3363 69.1868 49.3363C68.9397 49.3363 68.6975 49.2831 68.4602 49.1768C68.2254 49.0706 68.0301 48.9087 67.8744 48.6912C67.7212 48.4737 67.6446 48.1993 67.6446 47.8681V42.2033Z" fill="#010101"/>
<path d="M73.378 49.3808C72.8293 49.3808 72.356 49.2596 71.9581 49.0174C71.5626 48.7727 71.2574 48.4317 71.0424 47.9942C70.8298 47.5542 70.7235 47.0426 70.7235 46.4593C70.7235 45.876 70.8298 45.3619 71.0424 44.9171C71.2574 44.4697 71.5565 44.1212 71.9396 43.8716C72.3251 43.6195 72.775 43.4934 73.289 43.4934C73.5856 43.4934 73.8785 43.5429 74.1677 43.6417C74.4569 43.7406 74.7201 43.9012 74.9574 44.1237C75.1946 44.3436 75.3837 44.6353 75.5246 44.9986C75.6655 45.3619 75.7359 45.8093 75.7359 46.3407V46.7114H71.3464V45.9551H74.8462C74.8462 45.6338 74.7819 45.3471 74.6534 45.095C74.5273 44.8429 74.3469 44.6439 74.1121 44.4981C73.8798 44.3523 73.6054 44.2794 73.289 44.2794C72.9406 44.2794 72.639 44.3659 72.3844 44.5389C72.1323 44.7094 71.9383 44.9319 71.8024 45.2062C71.6664 45.4806 71.5985 45.7747 71.5985 46.0886V46.5928C71.5985 47.0229 71.6726 47.3874 71.8209 47.6865C71.9717 47.9831 72.1805 48.2092 72.4475 48.3649C72.7144 48.5182 73.0246 48.5948 73.378 48.5948C73.6079 48.5948 73.8155 48.5627 74.0009 48.4984C74.1887 48.4317 74.3506 48.3328 74.4865 48.2018C74.6225 48.0683 74.7275 47.9027 74.8017 47.705L75.6469 47.9423C75.558 48.229 75.4084 48.4811 75.1984 48.6986C74.9883 48.9136 74.7287 49.0817 74.4198 49.2028C74.1109 49.3214 73.7636 49.3808 73.378 49.3808Z" fill="#010101"/>
<path d="M77.0669 49.2621V43.5676H77.9122V44.4277H77.9715C78.0753 44.1459 78.2631 43.9173 78.535 43.7418C78.8069 43.5663 79.1134 43.4786 79.4544 43.4786C79.5187 43.4786 79.599 43.4798 79.6954 43.4823C79.7918 43.4848 79.8647 43.4885 79.9142 43.4934V44.3832C79.8845 44.3758 79.8165 44.3647 79.7102 44.3498C79.6064 44.3325 79.4965 44.3239 79.3803 44.3239C79.1035 44.3239 78.8563 44.382 78.6388 44.4981C78.4238 44.6118 78.2532 44.77 78.1272 44.9727C78.0036 45.1729 77.9418 45.4015 77.9418 45.6585V49.2621H77.0669Z" fill="#010101"/>
<path d="M86.4234 43.5676V44.309H83.3537V43.5676H86.4234ZM84.2731 49.2621V42.7816C84.2731 42.4554 84.3497 42.1835 84.503 41.966C84.6562 41.7485 84.8552 41.5854 85.0999 41.4766C85.3445 41.3679 85.6028 41.3135 85.8747 41.3135C86.0897 41.3135 86.2652 41.3308 86.4012 41.3654C86.5371 41.4 86.6384 41.4321 86.7052 41.4618L86.4531 42.2181C86.4086 42.2033 86.3468 42.1847 86.2677 42.1625C86.1911 42.1402 86.0897 42.1291 85.9637 42.1291C85.6745 42.1291 85.4657 42.202 85.3371 42.3478C85.2111 42.4937 85.1481 42.7075 85.1481 42.9892V49.2621H84.2731Z" fill="#010101"/>
<path d="M91.2384 46.9339V43.5676H92.1133V49.2621H91.2384V48.2982H91.1791C91.0456 48.5874 90.838 48.8333 90.5562 49.036C90.2744 49.2362 89.9185 49.3363 89.4885 49.3363C89.1326 49.3363 88.8162 49.2584 88.5394 49.1027C88.2626 48.9445 88.0451 48.7072 87.8869 48.3909C87.7287 48.072 87.6496 47.6704 87.6496 47.186V43.5676H88.5246V47.1267C88.5246 47.5419 88.6407 47.8731 88.8731 48.1202C89.1079 48.3674 89.4069 48.491 89.7702 48.491C89.9877 48.491 90.2089 48.4354 90.4339 48.3241C90.6612 48.2129 90.8516 48.0424 91.0048 47.8125C91.1605 47.5827 91.2384 47.2898 91.2384 46.9339Z" fill="#010101"/>
<path d="M96.1924 43.5676V44.309H93.2413V43.5676H96.1924ZM94.1014 42.2033H94.9763V47.6309C94.9763 47.878 95.0122 48.0634 95.0839 48.187C95.158 48.3081 95.2519 48.3896 95.3656 48.4317C95.4818 48.4712 95.6041 48.491 95.7327 48.491C95.829 48.491 95.9081 48.486 95.9699 48.4762C96.0317 48.4638 96.0811 48.4539 96.1182 48.4465L96.2962 49.2325C96.2369 49.2547 96.1541 49.2769 96.0478 49.2992C95.9415 49.3239 95.8068 49.3363 95.6437 49.3363C95.3965 49.3363 95.1543 49.2831 94.917 49.1768C94.6822 49.0706 94.487 48.9087 94.3313 48.6912C94.178 48.4737 94.1014 48.1993 94.1014 47.8681V42.2033Z" fill="#010101"/>
<path d="M101.097 46.9339V43.5676H101.972V49.2621H101.097V48.2982H101.038C100.904 48.5874 100.697 48.8333 100.415 49.036C100.133 49.2362 99.7774 49.3363 99.3474 49.3363C98.9914 49.3363 98.6751 49.2584 98.3983 49.1027C98.1214 48.9445 97.9039 48.7072 97.7458 48.3909C97.5876 48.072 97.5085 47.6704 97.5085 47.186V43.5676H98.3834V47.1267C98.3834 47.5419 98.4996 47.8731 98.7319 48.1202C98.9667 48.3674 99.2658 48.491 99.6291 48.491C99.8466 48.491 100.068 48.4354 100.293 48.3241C100.52 48.2129 100.71 48.0424 100.864 47.8125C101.019 47.5827 101.097 47.2898 101.097 46.9339Z" fill="#010101"/>
<path d="M103.575 49.2621V43.5676H104.42V44.4277H104.479C104.583 44.1459 104.771 43.9173 105.043 43.7418C105.315 43.5663 105.621 43.4786 105.962 43.4786C106.027 43.4786 106.107 43.4798 106.203 43.4823C106.3 43.4848 106.373 43.4885 106.422 43.4934V44.3832C106.392 44.3758 106.324 44.3647 106.218 44.3498C106.114 44.3325 106.004 44.3239 105.888 44.3239C105.611 44.3239 105.364 44.382 105.147 44.4981C104.932 44.6118 104.761 44.77 104.635 44.9727C104.511 45.1729 104.45 45.4015 104.45 45.6585V49.2621H103.575Z" fill="#010101"/>
<path d="M109.673 49.3808C109.125 49.3808 108.651 49.2596 108.253 49.0174C107.858 48.7727 107.553 48.4317 107.338 47.9942C107.125 47.5542 107.019 47.0426 107.019 46.4593C107.019 45.876 107.125 45.3619 107.338 44.9171C107.553 44.4697 107.852 44.1212 108.235 43.8716C108.62 43.6195 109.07 43.4934 109.584 43.4934C109.881 43.4934 110.174 43.5429 110.463 43.6417C110.752 43.7406 111.015 43.9012 111.253 44.1237C111.49 44.3436 111.679 44.6353 111.82 44.9986C111.961 45.3619 112.031 45.8093 112.031 46.3407V46.7114H107.642V45.9551H111.141C111.141 45.6338 111.077 45.3471 110.949 45.095C110.823 44.8429 110.642 44.6439 110.407 44.4981C110.175 44.3523 109.901 44.2794 109.584 44.2794C109.236 44.2794 108.934 44.3659 108.68 44.5389C108.428 44.7094 108.234 44.9319 108.098 45.2062C107.962 45.4806 107.894 45.7747 107.894 46.0886V46.5928C107.894 47.0229 107.968 47.3874 108.116 47.6865C108.267 47.9831 108.476 48.2092 108.743 48.3649C109.01 48.5182 109.32 48.5948 109.673 48.5948C109.903 48.5948 110.111 48.5627 110.296 48.4984C110.484 48.4317 110.646 48.3328 110.782 48.2018C110.918 48.0683 111.023 47.9027 111.097 47.705L111.942 47.9423C111.853 48.229 111.704 48.4811 111.494 48.6986C111.284 48.9136 111.024 49.0817 110.715 49.2028C110.406 49.3214 110.059 49.3808 109.673 49.3808Z" fill="#010101"/>
</g>
</svg>
