<svg  viewBox="0 0 801 719" fill="none" xmlns="http://www.w3.org/2000/svg">
<path d="M251.814 567.409C251.814 567.409 263.753 577.192 283.942 586.773C304.13 596.354 325.593 604.93 325.593 604.93L325.593 210.896L251.814 284.061L251.814 567.476V567.409Z" fill="white"/>
<path d="M362.752 173.977L401.922 135.385L438.677 173.977L438.677 718.698H362.752L362.752 173.977Z" fill="white"/>
<path d="M0.966797 718.631H325.392L325.527 645.063L318.551 643.254C197.219 606.94 108.483 494.31 108.483 361.313C108.483 199.036 240.547 66.9764 402.86 66.9764C565.174 66.9764 697.238 198.969 697.238 361.313C697.238 498.599 593.947 607.61 480.529 643.254L475.499 645.264L475.7 718.698H800.595L761.09 645.264H617.087C627.55 637.023 640.629 626.236 650.355 616.856C723.463 546.639 763.773 455.852 763.773 361.313C763.773 162.386 601.929 0.578125 402.86 0.578125C203.792 0.578125 42.0147 162.386 42.0147 361.313C42.0147 475.349 97.55 579.134 180.451 645.264H42.7525L0.966797 718.698V718.631Z" fill="white"/>
<path d="M549.345 567.341C549.345 567.341 537.406 577.123 517.218 586.704C497.029 596.285 475.566 604.861 475.566 604.861L475.566 210.76L549.345 283.925V567.341Z" fill="white"/>
</svg>
