<svg width="113" height="52" viewBox="0 0 113 52" fill="none" xmlns="http://www.w3.org/2000/svg">
<path d="M0.0273438 37.5143H16.6077L16.6145 33.7339L16.258 33.6409C10.0571 31.7748 5.52212 25.987 5.52212 19.1526C5.52212 10.8135 12.2715 4.02729 20.5668 4.02729C28.8621 4.02729 35.6114 10.8101 35.6114 19.1526C35.6114 26.2074 30.3326 31.8092 24.5362 33.6409L24.2791 33.7442L24.2894 37.5178H40.8937L38.8747 33.7442H31.5152C32.0499 33.3207 32.7184 32.7664 33.2154 32.2843C36.9517 28.676 39.0118 24.0107 39.0118 19.1526C39.0118 8.93018 30.7405 0.615234 20.5668 0.615234C10.393 0.615234 2.12516 8.93018 2.12516 19.1526C2.12516 25.0126 4.96339 30.3459 9.20016 33.7442H2.16287L0.0273438 37.5178V37.5143Z" fill="white"/>
<path d="M18.5195 9.52616L20.5214 7.54297L22.3998 9.52616V37.5181H18.5195V9.52616Z" fill="white"/>
<path d="M28.0557 29.7399C28.0557 29.7399 27.4456 30.2426 26.4138 30.7349C25.3821 31.2273 24.2852 31.668 24.2852 31.668V11.416L28.0557 15.1758V29.7399Z" fill="white"/>
<path d="M12.8477 29.7443C12.8477 29.7443 13.4578 30.2469 14.4896 30.7393C15.5213 31.2317 16.6182 31.6724 16.6182 31.6724V11.4238L12.8477 15.1836V29.7477V29.7443Z" fill="white"/>
<path d="M45.0855 7.50195H55.0467C55.9653 8.40747 56.8737 9.30266 57.7718 10.1841C56.4349 15.1731 55.698 17.9103 55.554 18.3923C55.3518 18.5059 54.1417 19.284 51.9239 20.7267C51.6154 20.9401 51.4269 21.0469 51.3618 21.0469H48.0231C46.4394 19.4975 45.5311 18.5954 45.298 18.3372C46.7205 13.0521 47.4712 10.2529 47.5398 9.94307C45.9184 8.35927 45.1026 7.54327 45.082 7.50195H45.0855ZM48.7429 18.3372H52.133L54.3234 10.2116H50.9573C50.9162 10.2116 50.6831 11.0517 50.2615 12.7319C50.2272 12.7974 49.7199 14.6669 48.7395 18.3372H48.7429Z" fill="white"/>
<path d="M56.9453 7.50195H66.9065C67.7977 8.38337 68.2502 8.83097 68.2674 8.84474C69.4465 8.07005 70.1526 7.62246 70.3755 7.50195H73.7416C74.6602 8.40747 75.5686 9.30266 76.4667 10.1841C74.5814 17.1872 73.6079 20.8093 73.5565 21.0469H70.1115C70.1664 20.7921 71.1364 17.1803 73.0217 10.2116H69.6556C69.6145 10.2116 69.5082 10.5869 69.3368 11.3375C69.1757 11.8505 68.3051 15.087 66.7214 21.0469H63.2765C63.3313 20.7921 64.3014 17.1803 66.1867 10.2116H62.8206C62.7794 10.2116 62.6732 10.5869 62.5018 11.3375C62.3407 11.8505 61.47 15.087 59.8864 21.0469H56.4414L59.4065 9.94307C57.7851 8.35927 56.9693 7.54327 56.9487 7.50195H56.9453Z" fill="white"/>
<path d="M75.6294 7.50195H85.5906C87.1742 9.05132 88.0826 9.9534 88.3157 10.2116H81.5081C81.4669 10.2116 81.3607 10.5869 81.1893 11.3375C81.0282 11.8436 80.8876 12.3704 80.7608 12.9213H84.1509C84.1509 12.9867 83.911 13.8888 83.4311 15.631H80.0135L79.2937 18.3407H86.1287C85.7003 19.8969 85.4603 20.799 85.4089 21.0503H75.1289L78.094 9.94651C76.4726 8.36271 75.6568 7.54671 75.6362 7.5054L75.6294 7.50195Z" fill="white"/>
<path d="M87.4917 7.50149H97.4529C99.0366 9.05086 99.9449 9.95294 100.178 10.2112H93.3704C93.3293 10.2112 93.0962 11.0513 92.6746 12.7315C92.6403 12.7969 92.133 14.6665 91.1526 18.3367H94.5427L95.2626 15.6271H93.5521C94.032 13.8883 94.2719 12.9828 94.2719 12.9174H99.4273L97.2644 21.043H90.4293C88.8457 19.4936 87.9373 18.5915 87.7042 18.3333C89.1268 13.0482 89.8775 10.249 89.946 9.93916C88.3247 8.35536 87.5088 7.53936 87.4883 7.49805L87.4917 7.50149Z" fill="white"/>
<path d="M99.3437 7.50195H109.305L112.03 10.1841C110.145 17.1872 109.175 20.8093 109.12 21.0469H105.675L107.118 15.6275H103.728L102.285 21.0469H98.8398L101.805 9.94307C100.184 8.35927 99.3677 7.54327 99.3472 7.50195H99.3437ZM104.472 12.9213H107.862C107.862 12.8628 108.102 11.9573 108.582 10.2116H105.216C105.174 10.2116 105.068 10.5869 104.897 11.3375C104.736 11.8436 104.595 12.3704 104.468 12.9213H104.472Z" fill="white"/>
<path d="M44.042 23.9761H54.0032C55.5869 25.5255 56.4952 26.4275 56.7283 26.6858H49.9207C49.8796 26.6858 49.6465 27.5259 49.2249 29.2061C49.1906 29.2715 48.6833 31.1411 47.7029 34.8114H51.093L51.8129 32.1017H50.1024C50.5823 30.3629 50.8222 29.4574 50.8222 29.392H55.9742L53.8113 37.5176H46.9762C45.3926 35.9682 44.4842 35.0661 44.2511 34.8079C45.6737 29.5228 46.4243 26.7236 46.4929 26.4138C44.8715 24.83 44.0557 24.014 44.0352 23.9727L44.042 23.9761Z" fill="white"/>
<path d="M55.8984 23.9766H65.8596C66.7783 24.8821 67.6867 25.7773 68.5847 26.6587C68.194 28.1323 67.9437 29.0516 67.8375 29.42C66.5315 30.2498 65.8459 30.6939 65.7808 30.7628C66.672 31.627 67.1176 32.0815 67.1176 32.1297C66.2093 35.4798 65.7294 37.277 65.6745 37.5215H62.2296L63.6727 32.1021H60.2826L58.8395 37.5215H55.3945L58.3596 26.4177C56.7382 24.8339 55.9224 24.0179 55.9018 23.9766H55.8984ZM61.0264 29.3959H64.4165C64.4165 29.3374 64.6565 28.4319 65.1364 26.6862H61.7703C61.7291 26.6862 61.6229 27.0615 61.4515 27.8121C61.2904 28.3182 61.1498 28.845 61.023 29.3959H61.0264Z" fill="white"/>
<path d="M67.7573 23.9766H77.7185C78.6372 24.8821 79.5456 25.7773 80.4437 26.6587C79.1102 31.6477 78.3698 34.3849 78.2259 34.8669C78.0236 34.9805 76.8136 35.7587 74.5958 37.2013C74.2873 37.4148 74.0988 37.5215 74.0337 37.5215H70.695C69.1113 35.9721 68.2029 35.07 67.9699 34.8118C69.3924 29.5267 70.1431 26.7276 70.2116 26.4177C68.5903 24.8339 67.7745 24.0179 67.7539 23.9766H67.7573ZM71.4148 34.8118H74.8049L76.9953 26.6862H73.6292C73.588 26.6862 73.3549 27.5263 72.9333 29.2065C72.899 29.272 72.3917 31.1415 71.4114 34.8118H71.4148Z" fill="white"/>
<path d="M79.6128 23.9766H86.1805L83.2703 34.8118H86.6604L89.5706 23.9766C90.4892 24.8821 91.3976 25.7773 92.2957 26.6587C90.4104 33.6618 89.4403 37.2839 89.3855 37.5215H79.1055L82.0705 26.4177C80.4492 24.8339 79.6334 24.0179 79.6128 23.9766Z" fill="white"/>
<path d="M91.4722 23.9766H101.433C102.352 24.8821 103.26 25.7773 104.158 26.6587C103.713 28.363 103.456 29.2926 103.384 29.4476C103.182 29.5612 101.972 30.3393 99.7538 31.7819C99.4453 31.9954 99.2567 32.1056 99.1916 32.1056H95.8529L94.4098 37.5249H90.9648L93.9299 26.4211C92.3085 24.8373 91.4927 24.0213 91.4722 23.98V23.9766ZM96.6002 29.3959H99.9903C99.9903 29.3374 100.23 28.4319 100.71 26.6862H97.344C97.3029 26.6862 97.1966 27.0615 97.0252 27.8121C96.8641 28.3182 96.7236 28.845 96.5967 29.3959H96.6002Z" fill="white"/>
<path d="M97.1283 34.4156H98.6365L97.9681 36.9014H99.5346C99.4352 37.2595 99.3803 37.4661 99.3701 37.5212H97.0117L97.6904 34.9733C97.3202 34.6084 97.1317 34.4224 97.1283 34.4121V34.4156Z" fill="white"/>
<path d="M99.8477 34.416H102.134C102.497 34.7706 102.706 34.9772 102.758 35.0392H101.98C101.98 35.0392 101.945 35.1253 101.908 35.2974C101.87 35.4145 101.671 36.1582 101.308 37.5251H100.516C100.53 37.4666 100.753 36.6368 101.184 35.0392H100.475C100.06 34.6295 99.8511 34.4229 99.8511 34.416H99.8477Z" fill="white"/>
<path d="M102.574 34.4156H104.86C105.072 34.6221 105.278 34.8287 105.484 35.0319C105.179 36.1749 105.007 36.805 104.976 36.9152C104.928 36.9427 104.651 37.1183 104.144 37.4489C104.072 37.4971 104.03 37.5212 104.013 37.5212H102.457L103.136 34.9733C102.766 34.6084 102.577 34.4224 102.574 34.4121V34.4156ZM103.413 36.9014H104.192L104.692 35.0387H103.921C103.921 35.0387 103.859 35.2316 103.763 35.6172C103.756 35.6309 103.64 36.0613 103.413 36.9014Z" fill="white"/>
<g opacity="0.8">
<path d="M0.0273438 49.6591V42.0664H2.68183C3.21075 42.0664 3.64699 42.1578 3.99054 42.3407C4.33409 42.5211 4.5899 42.7646 4.75797 43.0711C4.92604 43.3751 5.01007 43.7124 5.01007 44.0832C5.01007 44.4094 4.95199 44.6788 4.83583 44.8914C4.72213 45.1039 4.57137 45.272 4.38353 45.3956C4.19816 45.5192 3.99672 45.6106 3.77922 45.6699V45.7441C4.01155 45.7589 4.24512 45.8405 4.47992 45.9888C4.71472 46.1371 4.91121 46.3496 5.06939 46.6264C5.22757 46.9033 5.30667 47.2419 5.30667 47.6423C5.30667 48.0229 5.22016 48.3652 5.04715 48.6692C4.87414 48.9732 4.60103 49.2142 4.22781 49.3922C3.8546 49.5701 3.36894 49.6591 2.77081 49.6591H0.0273438ZM0.946776 48.8435H2.77081C3.37141 48.8435 3.79776 48.7273 4.04986 48.495C4.30443 48.2602 4.43172 47.9759 4.43172 47.6423C4.43172 47.3852 4.36622 47.148 4.23523 46.9305C4.10424 46.7105 3.91763 46.535 3.67541 46.404C3.4332 46.2705 3.14649 46.2038 2.8153 46.2038H0.946776V48.8435ZM0.946776 45.403H2.65217C2.92899 45.403 3.17862 45.3486 3.40107 45.2399C3.62598 45.1311 3.80394 44.9779 3.93493 44.7802C4.0684 44.5824 4.13513 44.3501 4.13513 44.0832C4.13513 43.7495 4.01897 43.4665 3.78664 43.2342C3.55431 42.9994 3.18604 42.882 2.68183 42.882H0.946776V45.403Z" fill="white"/>
<path d="M10.2875 47.3309V43.9645H11.1625V49.6591H10.2875V48.6952H10.2282C10.0948 48.9843 9.88714 49.2303 9.60538 49.4329C9.32362 49.6331 8.96771 49.7332 8.53765 49.7332C8.18174 49.7332 7.86538 49.6554 7.58856 49.4997C7.31174 49.3415 7.09424 49.1042 6.93606 48.7879C6.77788 48.469 6.69879 48.0674 6.69879 47.583V43.9645H7.57373V47.5236C7.57373 47.9389 7.6899 48.2701 7.92223 48.5172C8.15703 48.7644 8.45609 48.888 8.81942 48.888C9.03692 48.888 9.25812 48.8323 9.48304 48.7211C9.71042 48.6099 9.90074 48.4394 10.054 48.2095C10.2097 47.9796 10.2875 47.6868 10.2875 47.3309Z" fill="white"/>
<path d="M12.765 49.6591V43.9645H13.6399V49.6591H12.765ZM13.2099 43.0155C13.0394 43.0155 12.8923 42.9574 12.7687 42.8412C12.6476 42.725 12.587 42.5854 12.587 42.4223C12.587 42.2591 12.6476 42.1195 12.7687 42.0033C12.8923 41.8872 13.0394 41.8291 13.2099 41.8291C13.3804 41.8291 13.5263 41.8872 13.6474 42.0033C13.7709 42.1195 13.8327 42.2591 13.8327 42.4223C13.8327 42.5854 13.7709 42.725 13.6474 42.8412C13.5263 42.9574 13.3804 43.0155 13.2099 43.0155Z" fill="white"/>
<path d="M16.1174 42.0664V49.6591H15.2425V42.0664H16.1174Z" fill="white"/>
<path d="M19.8702 49.7777C19.3957 49.7777 18.9767 49.6579 18.6134 49.4181C18.2501 49.1759 17.9659 48.8348 17.7607 48.3949C17.5556 47.9525 17.453 47.4297 17.453 46.8266C17.453 46.2285 17.5556 45.7095 17.7607 45.2695C17.9659 44.8296 18.2513 44.4898 18.6171 44.25C18.9829 44.0103 19.4056 43.8904 19.885 43.8904C20.2558 43.8904 20.5487 43.9522 20.7637 44.0758C20.9812 44.1969 21.1468 44.3353 21.2605 44.491C21.3766 44.6442 21.4669 44.7703 21.5311 44.8691H21.6053V42.0664H22.4802V49.6591H21.6349V48.7841H21.5311C21.4669 48.888 21.3754 49.0189 21.2568 49.1771C21.1381 49.3328 20.9688 49.4725 20.7489 49.5961C20.5289 49.7172 20.236 49.7777 19.8702 49.7777ZM19.9889 48.9918C20.3398 48.9918 20.6364 48.9003 20.8786 48.7174C21.1208 48.532 21.305 48.2762 21.431 47.95C21.5571 47.6213 21.6201 47.2419 21.6201 46.8118C21.6201 46.3867 21.5583 46.0147 21.4347 45.6959C21.3112 45.3746 21.1283 45.125 20.886 44.947C20.6438 44.7666 20.3448 44.6764 19.9889 44.6764C19.6181 44.6764 19.3092 44.7715 19.062 44.9618C18.8173 45.1497 18.6332 45.4055 18.5096 45.7293C18.3885 46.0506 18.3279 46.4114 18.3279 46.8118C18.3279 47.2172 18.3897 47.5854 18.5133 47.9166C18.6394 48.2453 18.8247 48.5073 19.0694 48.7026C19.3166 48.8954 19.6231 48.9918 19.9889 48.9918Z" fill="white"/>
<path d="M24.2042 49.6591V43.9645H25.0791V49.6591H24.2042ZM24.649 43.0155C24.4785 43.0155 24.3314 42.9574 24.2079 42.8412C24.0867 42.725 24.0262 42.5854 24.0262 42.4223C24.0262 42.2591 24.0867 42.1195 24.2079 42.0033C24.3314 41.8872 24.4785 41.8291 24.649 41.8291C24.8196 41.8291 24.9654 41.8872 25.0865 42.0033C25.2101 42.1195 25.2719 42.2591 25.2719 42.4223C25.2719 42.5854 25.2101 42.725 25.0865 42.8412C24.9654 42.9574 24.8196 43.0155 24.649 43.0155Z" fill="white"/>
<path d="M27.5566 46.2335V49.6591H26.6816V43.9645H27.5269V44.8543H27.601C27.7345 44.5651 27.9372 44.3328 28.2091 44.1573C28.4809 43.9794 28.8319 43.8904 29.262 43.8904C29.6475 43.8904 29.9849 43.9695 30.2741 44.1277C30.5632 44.2834 30.7882 44.5207 30.9488 44.8395C31.1095 45.1558 31.1898 45.5562 31.1898 46.0407V49.6591H30.3149V46.1C30.3149 45.6526 30.1987 45.3041 29.9664 45.0545C29.734 44.8024 29.4152 44.6764 29.0099 44.6764C28.7306 44.6764 28.4809 44.7369 28.261 44.858C28.0435 44.9791 27.8717 45.1558 27.7456 45.3882C27.6196 45.6205 27.5566 45.9023 27.5566 46.2335Z" fill="white"/>
<path d="M35.0872 51.9132C34.6645 51.9132 34.3012 51.8588 33.9972 51.7501C33.6932 51.6438 33.4399 51.5029 33.2372 51.3274C33.037 51.1544 32.8776 50.969 32.7589 50.7713L33.4559 50.2819C33.535 50.3857 33.6351 50.5044 33.7562 50.6378C33.8773 50.7738 34.0429 50.8912 34.253 50.99C34.4656 51.0914 34.7436 51.142 35.0872 51.142C35.5469 51.142 35.9263 51.0308 36.2254 50.8084C36.5244 50.5859 36.674 50.2374 36.674 49.7629V48.6062H36.5998C36.5355 48.71 36.4441 48.8385 36.3255 48.9918C36.2093 49.1425 36.0412 49.2772 35.8213 49.3959C35.6038 49.512 35.3096 49.5701 34.9389 49.5701C34.4792 49.5701 34.0664 49.4614 33.7006 49.2439C33.3373 49.0264 33.0494 48.71 32.8368 48.2948C32.6267 47.8795 32.5217 47.3753 32.5217 46.7822C32.5217 46.1989 32.6242 45.6909 32.8294 45.2584C33.0345 44.8234 33.32 44.4873 33.6858 44.25C34.0516 44.0103 34.4742 43.8904 34.9537 43.8904C35.3245 43.8904 35.6186 43.9522 35.8361 44.0758C36.0561 44.1969 36.2241 44.3353 36.3403 44.491C36.4589 44.6442 36.5504 44.7703 36.6146 44.8691H36.7036V43.9645H37.5489V49.8222C37.5489 50.3116 37.4377 50.7095 37.2152 51.016C36.9953 51.3249 36.6987 51.5511 36.3255 51.6944C35.9547 51.8403 35.542 51.9132 35.0872 51.9132ZM35.0575 48.7841C35.4085 48.7841 35.7051 48.7038 35.9473 48.5432C36.1895 48.3825 36.3737 48.1514 36.4997 47.8499C36.6258 47.5484 36.6888 47.1875 36.6888 46.7673C36.6888 46.357 36.627 45.995 36.5034 45.6811C36.3798 45.3672 36.1969 45.1212 35.9547 44.9433C35.7125 44.7653 35.4134 44.6764 35.0575 44.6764C34.6868 44.6764 34.3778 44.7703 34.1307 44.9581C33.886 45.146 33.7019 45.3981 33.5783 45.7144C33.4572 46.0308 33.3966 46.3818 33.3966 46.7673C33.3966 47.1628 33.4584 47.5125 33.582 47.8165C33.708 48.1181 33.8934 48.3553 34.1381 48.5283C34.3853 48.6989 34.6917 48.7841 35.0575 48.7841Z" fill="white"/>
<path d="M43.7625 49.7926C43.4016 49.7926 43.0741 49.7246 42.78 49.5887C42.4859 49.4502 42.2523 49.2513 42.0793 48.9918C41.9063 48.7298 41.8198 48.4134 41.8198 48.0427C41.8198 47.7164 41.8841 47.452 42.0126 47.2493C42.1411 47.0441 42.3129 46.8835 42.5279 46.7673C42.7429 46.6512 42.9802 46.5647 43.2397 46.5078C43.5017 46.4485 43.7649 46.4015 44.0294 46.3669C44.3754 46.3224 44.656 46.2891 44.871 46.2668C45.0885 46.2421 45.2467 46.2013 45.3455 46.1445C45.4469 46.0876 45.4975 45.9888 45.4975 45.8479V45.8182C45.4975 45.4524 45.3974 45.1682 45.1972 44.9655C44.9995 44.7629 44.6992 44.6615 44.2963 44.6615C43.8786 44.6615 43.5512 44.753 43.3139 44.9359C43.0766 45.1188 42.9098 45.314 42.8134 45.5216L41.9829 45.2251C42.1312 44.879 42.329 44.6096 42.5761 44.4168C42.8257 44.2216 43.0976 44.0857 43.3917 44.009C43.6883 43.9299 43.98 43.8904 44.2667 43.8904C44.4496 43.8904 44.6597 43.9126 44.8969 43.9571C45.1367 43.9991 45.3678 44.0869 45.5902 44.2204C45.8151 44.3538 46.0017 44.5553 46.15 44.8247C46.2983 45.0941 46.3725 45.4549 46.3725 45.9072V49.6591H45.4975V48.888H45.453C45.3937 49.0115 45.2949 49.1438 45.1565 49.2846C45.018 49.4255 44.8339 49.5454 44.6041 49.6443C44.3742 49.7431 44.0937 49.7926 43.7625 49.7926ZM43.8959 49.0066C44.242 49.0066 44.5336 48.9386 44.7709 48.8027C45.0106 48.6667 45.1911 48.4913 45.3122 48.2762C45.4357 48.0612 45.4975 47.8351 45.4975 47.5978V46.797C45.4605 46.8415 45.3789 46.8823 45.2528 46.9193C45.1293 46.9539 44.9859 46.9848 44.8228 47.012C44.6621 47.0367 44.5052 47.059 44.352 47.0787C44.2012 47.096 44.0788 47.1109 43.9849 47.1232C43.7575 47.1529 43.545 47.2011 43.3473 47.2678C43.152 47.3321 42.9938 47.4297 42.8727 47.5607C42.7541 47.6892 42.6948 47.8647 42.6948 48.0872C42.6948 48.3912 42.8072 48.621 43.0321 48.7767C43.2595 48.93 43.5474 49.0066 43.8959 49.0066Z" fill="white"/>
<path d="M51.0243 49.6591V42.0664H51.8993V44.8691H51.9734C52.0377 44.7703 52.1267 44.6442 52.2403 44.491C52.3565 44.3353 52.5221 44.1969 52.7371 44.0758C52.9546 43.9522 53.2488 43.8904 53.6195 43.8904C54.099 43.8904 54.5216 44.0103 54.8874 44.25C55.2532 44.4898 55.5387 44.8296 55.7438 45.2695C55.949 45.7095 56.0515 46.2285 56.0515 46.8266C56.0515 47.4297 55.949 47.9525 55.7438 48.3949C55.5387 48.8348 55.2545 49.1759 54.8911 49.4181C54.5278 49.6579 54.1089 49.7777 53.6343 49.7777C53.2685 49.7777 52.9756 49.7172 52.7557 49.5961C52.5357 49.4725 52.3664 49.3328 52.2478 49.1771C52.1291 49.0189 52.0377 48.888 51.9734 48.7841H51.8696V49.6591H51.0243ZM51.8844 46.8118C51.8844 47.2419 51.9475 47.6213 52.0735 47.95C52.1996 48.2762 52.3837 48.532 52.6259 48.7174C52.8681 48.9003 53.1647 48.9918 53.5157 48.9918C53.8815 48.9918 54.1867 48.8954 54.4314 48.7026C54.6786 48.5073 54.8639 48.2453 54.9875 47.9166C55.1136 47.5854 55.1766 47.2172 55.1766 46.8118C55.1766 46.4114 55.1148 46.0506 54.9912 45.7293C54.8701 45.4055 54.686 45.1497 54.4388 44.9618C54.1941 44.7715 53.8864 44.6764 53.5157 44.6764C53.1598 44.6764 52.8607 44.7666 52.6185 44.947C52.3763 45.125 52.1934 45.3746 52.0698 45.6959C51.9462 46.0147 51.8844 46.3867 51.8844 46.8118Z" fill="white"/>
<path d="M59.7775 49.7777C59.2288 49.7777 58.7555 49.6566 58.3575 49.4144C57.9621 49.1697 57.6568 48.8286 57.4418 48.3912C57.2293 47.9512 57.123 47.4396 57.123 46.8563C57.123 46.273 57.2293 45.7589 57.4418 45.314C57.6568 44.8667 57.9559 44.5182 58.339 44.2685C58.7246 44.0164 59.1744 43.8904 59.6885 43.8904C59.9851 43.8904 60.278 43.9398 60.5671 44.0387C60.8563 44.1376 61.1195 44.2982 61.3568 44.5207C61.5941 44.7406 61.7832 45.0323 61.924 45.3956C62.0649 45.7589 62.1354 46.2063 62.1354 46.7377V47.1084H57.7458V46.3521H61.2456C61.2456 46.0308 61.1813 45.7441 61.0528 45.492C60.9268 45.2399 60.7463 45.0409 60.5115 44.8951C60.2792 44.7493 60.0049 44.6764 59.6885 44.6764C59.34 44.6764 59.0385 44.7629 58.7839 44.9359C58.5318 45.1064 58.3378 45.3289 58.2018 45.6032C58.0659 45.8776 57.9979 46.1717 57.9979 46.4856V46.9898C57.9979 47.4198 58.0721 47.7844 58.2204 48.0835C58.3711 48.38 58.58 48.6062 58.8469 48.7619C59.1138 48.9151 59.424 48.9918 59.7775 48.9918C60.0073 48.9918 60.2149 48.9596 60.4003 48.8954C60.5882 48.8286 60.75 48.7298 60.886 48.5988C61.0219 48.4653 61.127 48.2997 61.2011 48.102L62.0464 48.3393C61.9574 48.626 61.8079 48.8781 61.5978 49.0956C61.3877 49.3106 61.1282 49.4787 60.8192 49.5998C60.5103 49.7184 60.163 49.7777 59.7775 49.7777Z" fill="white"/>
<path d="M65.9429 43.9645V44.706H62.9918V43.9645H65.9429ZM63.8519 42.6002H64.7268V48.0278C64.7268 48.275 64.7627 48.4604 64.8343 48.5839C64.9085 48.7051 65.0024 48.7866 65.1161 48.8286C65.2323 48.8682 65.3546 48.888 65.4831 48.888C65.5795 48.888 65.6586 48.883 65.7204 48.8731C65.7822 48.8608 65.8316 48.8509 65.8687 48.8435L66.0467 49.6294C65.9873 49.6517 65.9045 49.6739 65.7983 49.6962C65.692 49.7209 65.5573 49.7332 65.3942 49.7332C65.147 49.7332 64.9048 49.6801 64.6675 49.5738C64.4327 49.4675 64.2375 49.3057 64.0817 49.0882C63.9285 48.8707 63.8519 48.5963 63.8519 48.2651V42.6002Z" fill="white"/>
<path d="M69.7355 43.9645V44.706H66.7844V43.9645H69.7355ZM67.6446 42.6002H68.5195V48.0278C68.5195 48.275 68.5553 48.4604 68.627 48.5839C68.7012 48.7051 68.7951 48.7866 68.9088 48.8286C69.0249 48.8682 69.1473 48.888 69.2758 48.888C69.3722 48.888 69.4513 48.883 69.5131 48.8731C69.5749 48.8608 69.6243 48.8509 69.6614 48.8435L69.8393 49.6294C69.78 49.6517 69.6972 49.6739 69.5909 49.6962C69.4847 49.7209 69.3499 49.7332 69.1868 49.7332C68.9397 49.7332 68.6975 49.6801 68.4602 49.5738C68.2254 49.4675 68.0301 49.3057 67.8744 49.0882C67.7212 48.8707 67.6446 48.5963 67.6446 48.2651V42.6002Z" fill="white"/>
<path d="M73.378 49.7777C72.8293 49.7777 72.356 49.6566 71.9581 49.4144C71.5626 49.1697 71.2574 48.8286 71.0424 48.3912C70.8298 47.9512 70.7235 47.4396 70.7235 46.8563C70.7235 46.273 70.8298 45.7589 71.0424 45.314C71.2574 44.8667 71.5565 44.5182 71.9396 44.2685C72.3251 44.0164 72.775 43.8904 73.289 43.8904C73.5856 43.8904 73.8785 43.9398 74.1677 44.0387C74.4569 44.1376 74.7201 44.2982 74.9574 44.5207C75.1946 44.7406 75.3837 45.0323 75.5246 45.3956C75.6655 45.7589 75.7359 46.2063 75.7359 46.7377V47.1084H71.3464V46.3521H74.8462C74.8462 46.0308 74.7819 45.7441 74.6534 45.492C74.5273 45.2399 74.3469 45.0409 74.1121 44.8951C73.8798 44.7493 73.6054 44.6764 73.289 44.6764C72.9406 44.6764 72.639 44.7629 72.3844 44.9359C72.1323 45.1064 71.9383 45.3289 71.8024 45.6032C71.6664 45.8776 71.5985 46.1717 71.5985 46.4856V46.9898C71.5985 47.4198 71.6726 47.7844 71.8209 48.0835C71.9717 48.38 72.1805 48.6062 72.4475 48.7619C72.7144 48.9151 73.0246 48.9918 73.378 48.9918C73.6079 48.9918 73.8155 48.9596 74.0009 48.8954C74.1887 48.8286 74.3506 48.7298 74.4865 48.5988C74.6225 48.4653 74.7275 48.2997 74.8017 48.102L75.6469 48.3393C75.558 48.626 75.4084 48.8781 75.1984 49.0956C74.9883 49.3106 74.7287 49.4787 74.4198 49.5998C74.1109 49.7184 73.7636 49.7777 73.378 49.7777Z" fill="white"/>
<path d="M77.0669 49.6591V43.9645H77.9122V44.8247H77.9715C78.0753 44.5429 78.2631 44.3143 78.535 44.1388C78.8069 43.9633 79.1134 43.8756 79.4544 43.8756C79.5187 43.8756 79.599 43.8768 79.6954 43.8793C79.7918 43.8817 79.8647 43.8855 79.9142 43.8904V44.7802C79.8845 44.7728 79.8165 44.7616 79.7102 44.7468C79.6064 44.7295 79.4965 44.7208 79.3803 44.7208C79.1035 44.7208 78.8563 44.7789 78.6388 44.8951C78.4238 45.0088 78.2532 45.167 78.1272 45.3696C78.0036 45.5698 77.9418 45.7985 77.9418 46.0555V49.6591H77.0669Z" fill="white"/>
<path d="M86.4234 43.9645V44.706H83.3537V43.9645H86.4234ZM84.2731 49.6591V43.1786C84.2731 42.8523 84.3497 42.5804 84.503 42.3629C84.6562 42.1454 84.8552 41.9823 85.0999 41.8736C85.3445 41.7648 85.6028 41.7104 85.8747 41.7104C86.0897 41.7104 86.2652 41.7278 86.4012 41.7624C86.5371 41.797 86.6384 41.8291 86.7052 41.8587L86.4531 42.6151C86.4086 42.6002 86.3468 42.5817 86.2677 42.5594C86.1911 42.5372 86.0897 42.5261 85.9637 42.5261C85.6745 42.5261 85.4657 42.599 85.3371 42.7448C85.2111 42.8906 85.1481 43.1044 85.1481 43.3862V49.6591H84.2731Z" fill="white"/>
<path d="M91.2384 47.3309V43.9645H92.1133V49.6591H91.2384V48.6952H91.1791C91.0456 48.9843 90.838 49.2303 90.5562 49.4329C90.2744 49.6331 89.9185 49.7332 89.4885 49.7332C89.1326 49.7332 88.8162 49.6554 88.5394 49.4997C88.2626 49.3415 88.0451 49.1042 87.8869 48.7879C87.7287 48.469 87.6496 48.0674 87.6496 47.583V43.9645H88.5246V47.5236C88.5246 47.9389 88.6407 48.2701 88.8731 48.5172C89.1079 48.7644 89.4069 48.888 89.7702 48.888C89.9877 48.888 90.2089 48.8323 90.4339 48.7211C90.6612 48.6099 90.8516 48.4394 91.0048 48.2095C91.1605 47.9796 91.2384 47.6868 91.2384 47.3309Z" fill="white"/>
<path d="M96.1924 43.9645V44.706H93.2413V43.9645H96.1924ZM94.1014 42.6002H94.9763V48.0278C94.9763 48.275 95.0122 48.4604 95.0839 48.5839C95.158 48.7051 95.2519 48.7866 95.3656 48.8286C95.4818 48.8682 95.6041 48.888 95.7327 48.888C95.829 48.888 95.9081 48.883 95.9699 48.8731C96.0317 48.8608 96.0811 48.8509 96.1182 48.8435L96.2962 49.6294C96.2369 49.6517 96.1541 49.6739 96.0478 49.6962C95.9415 49.7209 95.8068 49.7332 95.6437 49.7332C95.3965 49.7332 95.1543 49.6801 94.917 49.5738C94.6822 49.4675 94.487 49.3057 94.3313 49.0882C94.178 48.8707 94.1014 48.5963 94.1014 48.2651V42.6002Z" fill="white"/>
<path d="M101.097 47.3309V43.9645H101.972V49.6591H101.097V48.6952H101.038C100.904 48.9843 100.697 49.2303 100.415 49.4329C100.133 49.6331 99.7774 49.7332 99.3474 49.7332C98.9914 49.7332 98.6751 49.6554 98.3983 49.4997C98.1214 49.3415 97.9039 49.1042 97.7458 48.7879C97.5876 48.469 97.5085 48.0674 97.5085 47.583V43.9645H98.3834V47.5236C98.3834 47.9389 98.4996 48.2701 98.7319 48.5172C98.9667 48.7644 99.2658 48.888 99.6291 48.888C99.8466 48.888 100.068 48.8323 100.293 48.7211C100.52 48.6099 100.71 48.4394 100.864 48.2095C101.019 47.9796 101.097 47.6868 101.097 47.3309Z" fill="white"/>
<path d="M103.575 49.6591V43.9645H104.42V44.8247H104.479C104.583 44.5429 104.771 44.3143 105.043 44.1388C105.315 43.9633 105.621 43.8756 105.962 43.8756C106.027 43.8756 106.107 43.8768 106.203 43.8793C106.3 43.8817 106.373 43.8855 106.422 43.8904V44.7802C106.392 44.7728 106.324 44.7616 106.218 44.7468C106.114 44.7295 106.004 44.7208 105.888 44.7208C105.611 44.7208 105.364 44.7789 105.147 44.8951C104.932 45.0088 104.761 45.167 104.635 45.3696C104.511 45.5698 104.45 45.7985 104.45 46.0555V49.6591H103.575Z" fill="white"/>
<path d="M109.673 49.7777C109.125 49.7777 108.651 49.6566 108.253 49.4144C107.858 49.1697 107.553 48.8286 107.338 48.3912C107.125 47.9512 107.019 47.4396 107.019 46.8563C107.019 46.273 107.125 45.7589 107.338 45.314C107.553 44.8667 107.852 44.5182 108.235 44.2685C108.62 44.0164 109.07 43.8904 109.584 43.8904C109.881 43.8904 110.174 43.9398 110.463 44.0387C110.752 44.1376 111.015 44.2982 111.253 44.5207C111.49 44.7406 111.679 45.0323 111.82 45.3956C111.961 45.7589 112.031 46.2063 112.031 46.7377V47.1084H107.642V46.3521H111.141C111.141 46.0308 111.077 45.7441 110.949 45.492C110.823 45.2399 110.642 45.0409 110.407 44.8951C110.175 44.7493 109.901 44.6764 109.584 44.6764C109.236 44.6764 108.934 44.7629 108.68 44.9359C108.428 45.1064 108.234 45.3289 108.098 45.6032C107.962 45.8776 107.894 46.1717 107.894 46.4856V46.9898C107.894 47.4198 107.968 47.7844 108.116 48.0835C108.267 48.38 108.476 48.6062 108.743 48.7619C109.01 48.9151 109.32 48.9918 109.673 48.9918C109.903 48.9918 110.111 48.9596 110.296 48.8954C110.484 48.8286 110.646 48.7298 110.782 48.5988C110.918 48.4653 111.023 48.2997 111.097 48.102L111.942 48.3393C111.853 48.626 111.704 48.8781 111.494 49.0956C111.284 49.3106 111.024 49.4787 110.715 49.5998C110.406 49.7184 110.059 49.7777 109.673 49.7777Z" fill="white"/>
</g>
</svg>
