<svg width="31" height="30" viewBox="0 0 31 30" fill="none" xmlns="http://www.w3.org/2000/svg">
<g clip-path="url(#clip0_29_1341)">
<path d="M30.0737 3.26343H26.1836V7.15353H30.0737V3.26343Z" fill="white"/>
<path d="M3.96432 9.79102H0.0742188V13.6811H3.96432V9.79102Z" fill="white"/>
<path d="M30.0737 16.3184H26.1836V20.2085H30.0737V16.3184Z" fill="white"/>
<path d="M3.96432 22.8459H0.0742188V26.736H3.96432V22.8459Z" fill="white"/>
<path d="M0.0742188 3.26392V7.15401H5.28303H10.4918V3.26392H0.0742188Z" fill="white"/>
<path d="M5.28303 16.3188H0.0742188V20.2089H5.28303H10.4918V16.3188H5.28303Z" fill="white"/>
<path d="M11.8104 9.7915H6.60156V13.6816H11.8104H17.0192V9.7915H11.8104Z" fill="white"/>
<path d="M11.8104 22.8464H6.60156V26.7366H17.0192V22.8464H11.8104Z" fill="white"/>
<path d="M13.1289 3.26392V7.15401H18.3378H23.5465V3.26392H13.1289Z" fill="white"/>
<path d="M18.3378 16.3188H13.1289V20.2089H18.3378H23.5465V16.3188H18.3378Z" fill="white"/>
<path d="M24.8649 9.7915H19.6562V13.6816H24.8649H30.0737V9.7915H24.8649Z" fill="white"/>
<path d="M24.8649 22.8464H19.6562V26.7366H30.0737V22.8464H24.8649Z" fill="white"/>
</g>
<defs>
<clipPath id="clip0_29_1341">
<rect width="30" height="30" fill="white" transform="translate(0.0742188)"/>
</clipPath>
</defs>
</svg>
