<svg width="31" height="30" viewBox="0 0 31 30" fill="none" xmlns="http://www.w3.org/2000/svg">
<g clip-path="url(#clip0_29_1315)">
<path d="M10.9062 23.75V26.25V27.5V28.75H19.2397V27.5V26.25V23.75H10.9062Z" fill="white"/>
<path d="M10.9062 1.25V2.50004V3.75002V21.25H19.2397V3.75002V2.50004V1.25H10.9062Z" fill="white"/>
<path d="M28.8255 1.25H21.7422V2.49998V3.75002V21.25H27.5755H28.8255H30.0755V2.50004C30.0755 1.80969 29.516 1.25 28.8255 1.25Z" fill="white"/>
<path d="M1.3242 1.25C0.633965 1.25 0.0742188 1.80969 0.0742188 2.50004V21.25H1.3242H2.57418H8.40754V3.75002V2.50004V1.25H1.3242Z" fill="white"/>
<path d="M2.57424 23.75H1.3242H0.0742188V27.5C0.0742188 28.1904 0.633965 28.75 1.3242 28.75H8.40754V27.5V26.25V23.75H2.57424Z" fill="white"/>
<path d="M28.8255 23.75H27.5755H21.7422V26.25V27.5V28.75H28.8255C29.5159 28.75 30.0755 28.1903 30.0755 27.5V23.75H28.8255Z" fill="white"/>
</g>
<defs>
<clipPath id="clip0_29_1315">
<rect width="30" height="30" fill="white" transform="translate(0.0742188)"/>
</clipPath>
</defs>
</svg>
