<svg width="31" height="25" viewBox="0 0 31 25" fill="none" xmlns="http://www.w3.org/2000/svg">
<path d="M29.1279 13.4773H1.02058C0.497956 13.4773 0.0742188 13.901 0.0742188 14.4237V23.2249C0.0742188 23.7475 0.497956 24.1712 1.02058 24.1712H29.1279C29.6505 24.1712 30.0742 23.7475 30.0742 23.2249V14.4237C30.0742 13.901 29.6505 13.4773 29.1279 13.4773Z" fill="white"/>
<path d="M13.4199 12.1522H16.7275C16.4513 11.5114 15.8146 11.061 15.0737 11.061C14.3327 11.061 13.6961 11.5114 13.4199 12.1522Z" fill="white"/>
<path d="M3.97553 10.3041C4.51098 10.3452 5.19866 10.459 5.86896 10.7436C5.37522 11.1827 4.87472 11.6389 4.41371 12.1523H11.4486C11.7805 10.4541 13.2792 9.16838 15.0731 9.16838C16.867 9.16838 18.3657 10.4541 18.6976 12.1523H26.2555C26.5214 11.7368 26.7545 11.3213 26.9535 10.9014C27.116 10.5586 27.0581 10.1519 26.8062 9.86807C26.5544 9.58433 26.1576 9.47848 25.7977 9.59878L25.5548 9.6808C24.9437 9.88747 24.3533 10.0873 23.787 10.1676C24.2254 8.67312 24.5533 6.90262 24.2907 5.06282C24.2322 4.65302 23.9142 4.32878 23.5056 4.26242C23.0967 4.19666 22.6926 4.40302 22.5075 4.77322C22.2352 5.31767 21.7703 5.74888 21.2633 6.09676C20.8916 4.56504 20.2949 2.85666 19.1846 1.40413C18.9463 1.09242 18.5406 0.959891 18.1639 1.07151C17.7876 1.18292 17.5192 1.51514 17.4892 1.90646C17.4471 2.45373 17.3292 3.16019 17.0304 3.84454C15.903 2.72191 14.5707 1.59797 12.9705 0.839688C12.6276 0.677264 12.2209 0.735244 11.9371 0.986961C11.6533 1.23878 11.5473 1.63575 11.6678 1.99545L11.7498 2.23838C11.9565 2.84949 12.1563 3.43989 12.2366 4.00615C10.7423 3.56767 8.97159 3.24009 7.13189 3.50252C6.72209 3.561 6.39785 3.87908 6.33149 4.28757C6.26512 4.69625 6.47209 5.1006 6.84229 5.28565C7.38674 5.55797 7.81795 6.02292 8.16583 6.52989C6.63411 6.90161 4.92573 7.49827 3.4732 8.60858C3.16138 8.84696 3.02916 9.25292 3.14058 9.62928C3.25209 10.0056 3.58421 10.2741 3.97553 10.3041Z" fill="white"/>
</svg>
