<svg width="30" height="30" viewBox="0 0 30 30" fill="none" xmlns="http://www.w3.org/2000/svg">
<g clip-path="url(#clip0_29_1378)">
<path d="M29.6704 17.3865C29.3555 16.5323 28.8492 15.798 28.2559 15.1809C27.6608 14.5629 26.976 14.0548 26.26 13.6447C25.5926 13.2629 24.7402 13.4936 24.3585 14.1619C23.9758 14.8303 24.2065 15.6817 24.8757 16.0635C25.566 16.4572 26.1822 16.968 26.5906 17.5137C26.7956 17.7865 26.9504 18.0657 27.0547 18.3477C27.1582 18.6306 27.2113 18.9153 27.2122 19.2238C27.2113 19.5305 27.1546 19.8281 27.0328 20.1384C26.8213 20.6786 26.3956 21.2636 25.73 21.8321C24.7375 22.6854 23.2251 23.4728 21.373 24.0239C19.5227 24.5778 17.3374 24.9028 15 24.9028C11.4386 24.9065 8.22692 24.1402 6.02145 22.9884C4.91731 22.4162 4.07227 21.7506 3.54405 21.097C3.27669 20.7701 3.08813 20.4479 2.96637 20.1384C2.84461 19.8281 2.7869 19.5305 2.7869 19.2238C2.7869 18.9153 2.84186 18.6306 2.94528 18.3477C3.09909 17.9256 3.37377 17.5054 3.75188 17.1117C4.12911 16.7198 4.607 16.3591 5.12426 16.0634C5.7917 15.6807 6.02333 14.8293 5.64065 14.1609C5.25885 13.4935 4.40649 13.2619 3.73911 13.6445C2.78602 14.192 1.88239 14.9107 1.18295 15.8363C0.833208 16.2995 0.537486 16.8168 0.327837 17.3863C0.119947 17.955 -0.000932087 18.5757 5.41324e-06 19.2239C-0.000932087 19.8941 0.131841 20.5496 0.372603 21.1593C0.795591 22.2305 1.53165 23.157 2.45637 23.9498C3.85073 25.1382 5.69004 26.0537 7.82778 26.6946C9.96551 27.3328 12.4054 27.6898 15 27.6898C18.9533 27.6861 22.5449 26.8695 25.264 25.4614C26.6217 24.7528 27.7707 23.894 28.6175 22.8558C29.0396 22.3367 29.3857 21.7709 29.6255 21.1593C29.8672 20.5496 30 19.894 30 19.2239C30 18.5757 29.8801 17.955 29.6704 17.3865Z" fill="white"/>
<path d="M8.98454 18.8694C9.35169 19.546 10.1976 19.796 10.8742 19.4279C11.5498 19.0599 11.8007 18.2139 11.4318 17.5383C11.1525 17.0292 10.9347 16.6831 10.7936 16.3169C10.6517 15.9498 10.5464 15.535 10.5428 14.8063C10.5446 14.1737 10.6279 13.7754 10.7396 13.444C10.8247 13.1941 10.9328 12.9734 11.0756 12.7143C11.2852 12.3298 11.592 11.8547 11.8501 11.1909C12.1074 10.529 12.2804 9.70685 12.2777 8.70343C12.2814 7.67897 12.101 6.84214 11.8345 6.17382C11.5681 5.50362 11.2569 5.02849 11.049 4.64124C10.6819 3.9656 9.83503 3.71563 9.15939 4.08366C8.48281 4.45169 8.23378 5.29854 8.60093 5.97425C8.88201 6.48237 9.09898 6.82843 9.24089 7.19464C9.38187 7.56085 9.4881 7.9747 9.48992 8.70343C9.4881 9.33606 9.40566 9.73339 9.29398 10.0648C9.20884 10.3148 9.09986 10.5354 8.958 10.7945C8.74923 11.179 8.44161 11.6551 8.18345 12.3179C7.92529 12.9798 7.75314 13.802 7.75589 14.8063C7.75314 15.8308 7.93261 16.6676 8.19904 17.3369C8.4654 18.007 8.77765 18.4831 8.98454 18.8694Z" fill="white"/>
<path d="M14.4715 20.3646C14.7791 21.0705 15.6004 21.3928 16.3053 21.0852C17.0112 20.7776 17.3344 19.9572 17.0268 19.2514C16.7558 18.6361 16.5269 18.1857 16.3658 17.6703C16.2056 17.1539 16.0857 16.5414 16.0838 15.5645C16.0847 14.7159 16.1772 14.1418 16.3053 13.6694C16.4024 13.3151 16.5232 13.0102 16.6706 12.676C16.8876 12.1789 17.1824 11.6049 17.4214 10.8358C17.6604 10.0668 17.8196 9.13205 17.8178 7.94371C17.8196 6.73064 17.6539 5.78124 17.4077 5.00394C17.1604 4.22576 16.8602 3.65077 16.6432 3.14816C16.3356 2.44228 15.5153 2.11908 14.8103 2.42669C14.1044 2.73431 13.7812 3.55556 14.0888 4.2605C14.3589 4.87667 14.5887 5.3262 14.749 5.84072C14.9092 6.35617 15.0282 6.96771 15.03 7.94371C15.0291 8.79238 14.9366 9.36736 14.8094 9.83974C14.7123 10.195 14.5915 10.4989 14.4432 10.8331C14.2262 11.3293 13.9314 11.9042 13.6933 12.6733C13.4535 13.4414 13.2951 14.3771 13.2969 15.5645C13.2951 16.7785 13.4608 17.7289 13.708 18.507C13.9543 19.2861 14.2545 19.862 14.4715 20.3646Z" fill="white"/>
<path d="M20.0638 18.8695C20.4318 19.546 21.2778 19.796 21.9544 19.4279C22.63 19.0599 22.8791 18.2139 22.512 17.5383C22.2318 17.0301 22.0149 16.6831 21.8729 16.3169C21.732 15.9498 21.6267 15.5351 21.623 14.8063C21.6248 14.1737 21.7081 13.7754 21.8198 13.444C21.9049 13.1941 22.013 12.9735 22.1558 12.7144C22.3645 12.3298 22.6722 11.8537 22.9294 11.1909C23.1867 10.529 23.3597 9.70686 23.3569 8.70344C23.3606 7.67898 23.1802 6.84309 22.9138 6.17383C22.6483 5.50457 22.337 5.02943 22.1301 4.64213C21.7621 3.96555 20.9161 3.71559 20.2395 4.08367C19.5629 4.45176 19.3139 5.29768 19.6811 5.97332C19.9612 6.48238 20.1782 6.82844 20.3201 7.19371C20.462 7.56086 20.5664 7.97465 20.5691 8.70344C20.5673 9.33607 20.4849 9.7334 20.3732 10.0648C20.288 10.3148 20.18 10.5354 20.0381 10.7945C19.8284 11.179 19.5217 11.6551 19.2635 12.3179C19.0054 12.9798 18.8332 13.802 18.836 14.8063C18.8332 15.8308 19.0127 16.6676 19.2791 17.3369C19.5457 18.007 19.8569 18.4822 20.0638 18.8695Z" fill="white"/>
</g>
<defs>
<clipPath id="clip0_29_1378">
<rect width="30" height="30" fill="white"/>
</clipPath>
</defs>
</svg>
