<svg  viewBox="0 0 25 24" fill="none" xmlns="http://www.w3.org/2000/svg">
<path fill-rule="evenodd" clip-rule="evenodd" d="M8.07422 0.232178C12.2164 0.232178 15.5742 3.59004 15.5742 7.73218C15.5742 8.48986 15.4619 9.22131 15.2529 9.91076L23.0742 17.7322C24.4549 19.1129 24.4549 21.3515 23.0742 22.7322C21.6935 24.1129 19.4549 24.1129 18.0742 22.7322L10.2528 14.9109C9.56335 15.1198 8.8319 15.2322 8.07422 15.2322C3.93208 15.2322 0.574219 11.8743 0.574219 7.73218C0.574219 6.93284 0.699267 6.1627 0.930869 5.44027L4.4786 8.98218L7.99506 7.81104L8.15209 7.65401L9.32422 4.14085L5.77234 0.592033C6.49765 0.35838 7.2712 0.232178 8.07422 0.232178Z" fill="white"/>
</svg>
