<?xml version="1.0" encoding="utf-8"?><!-- Uploaded to: SVG Repo, www.svgrepo.com, Generator: SVG Repo Mixer Tools -->
<svg width="800px" height="800px" viewBox="0 0 64 64" id="Layer_1" data-name="Layer 1" xmlns="http://www.w3.org/2000/svg"><defs><style>.cls-1{fill:none;stroke:#000000;stroke-linecap:round;stroke-linejoin:round;stroke-width:2px;}</style></defs><title>paint, colour, graphic, design</title><path class="cls-1" d="M33.08,34.7,40,48.45a17.94,17.94,0,0,1-2.15-7.88c0-1.72,1-2.49,2.21-3.53a14.29,14.29,0,0,0,3.1-4.15,13.34,13.34,0,0,0,1.62-6.09,12.36,12.36,0,0,0-21.9-7.86c-2.46,3-3.13,7-3.22,10.74a45.74,45.74,0,0,0,1.17,12.15q.13.5.28,1a16.33,16.33,0,0,0,1.15,2.85,6.19,6.19,0,0,0,5.48,3.69,5.72,5.72,0,0,0,3.85-1.61A4.06,4.06,0,0,0,33,44.9a4.6,4.6,0,0,0-1.33-3A3.94,3.94,0,0,0,28,40.63a2.35,2.35,0,0,0-2,2.49c.18,1.21,1.52,1.5,2.51,1.75"/><path class="cls-1" d="M29.92,28.67a1.57,1.57,0,0,1,.79,1.91,3.93,3.93,0,0,1-.47.9,2.3,2.3,0,0,0-.13,2,2.27,2.27,0,0,0,3,1.21,2.52,2.52,0,0,0,1.28-1.34"/><path class="cls-1" d="M34,24.17a2.24,2.24,0,1,1,0-4.48"/><path class="cls-1" d="M39,30.35a1.31,1.31,0,1,1-2-1.73"/><path class="cls-1" d="M26,36.91a1.31,1.31,0,1,1-1-2.42"/><path class="cls-1" d="M25.4,28.18A2.24,2.24,0,0,1,27,24"/></svg>