<svg width="113" height="77" viewBox="0 0 113 77" fill="none" xmlns="http://www.w3.org/2000/svg">
<path d="M3.01642 0.31543H58.9502C63.9546 5.26473 66.4953 7.77805 66.5915 7.85538C73.2127 3.50541 77.1778 0.992092 78.4289 0.31543H97.3301C102.488 5.40007 107.589 10.4267 112.632 15.376C102.046 54.6998 96.5794 75.0383 96.2907 76.3723H76.9468C77.2548 74.9417 82.7018 54.6611 93.2881 15.5307H74.3868C74.1559 15.5307 73.5592 17.638 72.5968 21.8526C71.6922 24.7333 66.8033 42.9065 57.9108 76.3723H38.5669C38.8749 74.9417 44.322 54.6611 54.9082 15.5307H36.007C35.776 15.5307 35.1793 17.638 34.2169 21.8526C33.3123 24.7333 28.4234 42.9065 19.5309 76.3723H0.187012L16.8363 14.0227C7.73212 5.1294 3.15115 0.547428 3.03566 0.31543H3.01642Z" fill="white"/>
</svg>
