<svg width="72" height="77" viewBox="0 0 72 77" fill="none" xmlns="http://www.w3.org/2000/svg">
<path d="M0.425028 0.31543H56.3588C61.5172 5.40007 66.6178 10.4267 71.6607 15.376C64.1541 43.3898 60.0159 58.7598 59.2075 61.4664C58.0718 62.1044 51.2774 66.4737 38.8242 74.5743C37.0919 75.773 36.0332 76.3723 35.6675 76.3723H16.9203C8.02785 67.6724 2.92722 62.6071 1.61838 61.1571C9.60617 31.4806 13.8214 15.7627 14.2064 14.0227C5.10222 5.1294 0.521248 0.547428 0.405762 0.31543H0.425028ZM20.9623 61.1571H39.9983L52.2975 15.5307H33.3963C33.1654 15.5307 31.8565 20.248 29.489 29.6826C29.2965 30.0499 26.4479 40.5479 20.9431 61.1571H20.9623Z" fill="white"/>
</svg>
